<svg xmlns="http://www.w3.org/2000/svg" viewBox="0 0 500 500"><path d="M378 153c-16-9-32-12-49-10-22 3-39 6-60-2-18-7-34-17-51-26-34-17-68-23-93 12a257 257 0 00-47 173c6 47 47 69 95 52 20-7 38-17 59-20 44-6 80 34 132 25 90-17 84-166 14-204z" fill="#fde68a"/><path d="M378 153c-16-9-32-12-49-10-22 3-39 6-60-2-18-7-34-17-51-26-34-17-68-23-93 12a257 257 0 00-47 173c6 47 47 69 95 52 20-7 38-17 59-20 44-6 80 34 132 25 90-17 84-166 14-204z" fill="#fff" opacity=".7"/><path d="M392 114c-7-3-10 0-12-3s6-11-11-18c0 0-1-16-25-17s-17 16-23 20-8-2-15 2-3 12-8 13-13-5-19-1-6 8-9 8-9-3-12 0l-8 5h146s2-5-4-9z" fill="#fde68a"/><path d="M392 114c-7-3-10 0-12-3s6-11-11-18c0 0-1-16-25-17s-17 16-23 20-8-2-15 2-3 12-8 13-13-5-19-1-6 8-9 8-9-3-12 0l-8 5h146s2-5-4-9z" fill="#fff" opacity=".5"/><path d="M226 244c-4-3-6-1-8-3s4-7-8-12c0 0-1-11-17-12s-12 11-17 14-5-1-10 2-2 8-6 9-9-4-13-1-4 5-6 5-7-1-9 0l-5 4h102s2-4-3-6z" fill="#fff"/><path d="M226 244c-4-3-6-1-8-3s4-7-8-12c0 0-1-11-17-12s-12 11-17 14-5-1-10 2-2 8-6 9-9-4-13-1-4 5-6 5-7-1-9 0l-5 4h102s2-4-3-6z" fill="#fff" opacity=".5"/><g><path d="M353 413h63c-1-8-6-6-7-18 0-6 5-14 5-22 0-6-7-13-7-21-1-6 5-14 4-21 0-7-7-14-7-21-1-7 4-14 4-21s-8-14-8-21c-1-7 4-14 3-21 0-8-7-14-8-20-1-8 4-16 2-22-1-8-8-14-10-20-3-10-2-21-6-22-3 0-4 10-7 21-1 6-8 12-10 20 0 6 5 14 4 21s-8 13-8 21c-1 6 4 14 4 21-1 7-7 13-7 20s5 15 4 22c0 7-6 13-7 20 0 7 6 15 5 21 0 8-6 14-7 21 0 8 6 15 6 21-1 13-7 10-7 21z" fill="#fde68a"/><path fill="none" stroke="#000" stroke-miterlimit="10" d="M380 184v226M390 208l-10 9-9-11M390 247l-10 9-9-11M390 284l-10 9-9-11M390 328l-10 9-9-11M390 373l-10 8-9-11"/><path d="M310 413h49c-1-6-5-5-6-14 0-5 4-11 4-17 0-5-5-10-6-16 0-5 4-11 4-16-1-6-6-11-6-16s4-12 3-17-5-10-6-16c-1-5 3-11 3-16-1-6-6-11-7-16-1-6 3-12 2-17-1-6-6-10-8-15-2-8-2-16-4-17-3 0-4 8-6 16-1 5-6 9-7 15-1 5 3 11 2 17 0 5-5 10-6 16 0 5 4 11 3 16 0 5-5 11-5 16s4 11 3 16-5 11-5 16c0 6 4 11 4 17 0 5-5 11-5 16-1 6 4 11 4 16-1 10-5 8-5 16z" fill="#fde68a"/><path fill="none" stroke="#000" stroke-miterlimit="10" d="M331 236v175M338 255l-8 7-6-9M338 285l-8 7-6-9M338 314l-8 6-6-8M338 347l-8 7-6-8M338 382l-8 7-6-9"/></g><g><path fill="#2e353a" stroke="#2e353a" stroke-linecap="round" stroke-linejoin="round" d="M266 412V210h11v202"/><path fill="#fde68a" stroke="#2e353a" stroke-linecap="round" stroke-linejoin="round" d="M261 412V210h11v202"/><path style="mix-blend-mode:multiply" fill="#2e353a" opacity=".3" d="M261 210h11v24h-11z"/><path d="M307 131h-80l35 85h79v-50a34 34 0 00-34-35z" fill="#fde68a" stroke="#2e353a" stroke-linecap="round" stroke-linejoin="round"/><path d="M256 201l6 15h79v-50-3h-85z" style="mix-blend-mode:multiply" opacity=".3"/><path fill="none" stroke="#2e353a" stroke-linecap="round" stroke-linejoin="round" d="M306 164h-8M341 164h-25"/><path d="M227 131h0a34 34 0 0135 35v50h0-69 0v-50a34 34 0 0134-35z" fill="#2e353a" stroke="#2e353a" stroke-linecap="round" stroke-linejoin="round"/><path fill="#fde68a" stroke="#2e353a" stroke-linecap="round" stroke-linejoin="round" d="M203 210h59v6h-59z"/><path fill="#fde68a" stroke="#2e353a" stroke-linecap="round" stroke-linejoin="round" d="M139 210h123v6H139z"/><path opacity=".3" d="M203 210h59v6h-59z"/><path fill="#2e353a" stroke="#2e353a" stroke-linecap="round" stroke-linejoin="round" d="M287 111h25v17h-25z"/><path fill="#fff" stroke="#2e353a" stroke-linecap="round" stroke-linejoin="round" d="M284 111h5v54h-5z"/><circle cx="286.3" cy="166.2" r="6" fill="#2e353a" stroke="#2e353a" stroke-linecap="round" stroke-linejoin="round"/></g><g stroke-linecap="round" stroke-linejoin="round"><path d="M198 145c14 7 38 19 61 24" fill="none" stroke="#fff" stroke-dasharray="2,4"/><path d="M187 139l11 6" fill="none" stroke="#2e353a" stroke-dasharray="2,4"/><path fill="#fff" stroke="#2e353a" stroke-width="1.3" d="M182 139l10-24-73-18 63 42z"/><path fill="#fde68a" stroke="#2e353a" stroke-width="1.3" d="M187 118l-5 21-63-42 68 21z"/><path fill="#fff" stroke="#2e353a" stroke-width="1.3" d="M187 118l-12 9-56-30 68 21zM192 115l10-4-83-14 73 18z"/><path fill="none" stroke="#2e353a" d="M168 135l2 1M155 127l8 5"/><path fill="#fff" stroke="#2e353a" stroke-width="1.3" d="M146 184v-26l74 12-74 14z"/><path fill="#fde68a" stroke="#2e353a" stroke-width="1.3" d="M150 163l-4 21 74-14-70-7z"/><path fill="#fff" stroke="#2e353a" stroke-width="1.3" d="M150 163l6 13 64-6-70-7zM146 158l-8-7 82 19-74-12z"/><path fill="none" stroke="#2e353a" d="M172 184l7-2M150 188l16-3"/><path d="M137 183s-58 10-69 62 47 55 57 30-34-35-44-11 20 65 61 67c34 1 130-39 189-49 0 0 44-12 112-9" fill="none" stroke="#2e353a" stroke-dasharray="2,4"/></g><g stroke="#2e353a" stroke-linecap="round" stroke-linejoin="round"><path fill="#fff" d="M423 346h17M423 370h17M72 370h349v-24H72"/><path d="M97 413V295a2 2 0 010-1l9-9a2 2 0 013 0l8 9a2 2 0 011 1v118" fill="#2e353a"/><path d="M94 414V295a2 2 0 011-1l9-9a2 2 0 013 0l8 9a2 2 0 010 1v119" fill="#fff"/><path d="M173 413V295a2 2 0 011-1l9-9a2 2 0 013 0l8 9a2 2 0 011 1v118" fill="#2e353a"/><path d="M171 414V295a2 2 0 011-1l9-9a2 2 0 013 0l8 9a2 2 0 011 1v119" fill="#fff"/><path d="M251 413V295a2 2 0 010-1l10-9a2 2 0 013 0l8 9a2 2 0 010 1v119" fill="#2e353a"/><path d="M249 414V295a2 2 0 010-1l9-9a2 2 0 013 0l8 9a2 2 0 011 1v119" fill="#fff"/><path d="M328 413V295a2 2 0 011-1l9-9a2 2 0 013 0l8 9a2 2 0 011 1v118" fill="#2e353a"/><path d="M326 414V295a2 2 0 011-1l9-9a2 2 0 013 0l8 9a2 2 0 010 1v119" fill="#fff"/><path d="M405 413V295a2 2 0 011-1l9-9a2 2 0 013 0l8 9a2 2 0 011 1v118" fill="#2e353a"/><path d="M403 414V295a2 2 0 011-1l9-9a2 2 0 013 0l8 9a2 2 0 011 1v119" fill="#fff"/><path fill="none" d="M107 285v9M110 290v20M176 291v26M179 288v11M259 285v25M263 287v37M330 291v28M341 288v7M410 287v15M420 289v43M403 352h-9M403 359h-32M284 359h-14M208 359h-14M94 355H79M94 362h-6M277 355h-7M200 363h-7M171 363h-7M431 359h-6M439 359h-3M115 316l-5 43c-3 22 2 45 4 47M105 360l1-7"/><path d="M112 403s-9-2-9-18l1-19M188 291s2 1-1 18-3 42 1 56M193 322s-5 15-1 36M250 331l5 30c2 15 1 36-1 41l-4 10M259 405c-2 7-5-1-5-1M259 354s5 24 2 43M249 362s5 11 1 21M342 363a68 68 0 003 9M346 312a139 139 0 00-6 31 71 71 0 001 15M337 357l7 23c3 6 1 21-2 28M404 319s10 18 1 47M414 350l-3 18-7 16M413 340v5" fill="none"/></g></svg>