<svg xmlns="http://www.w3.org/2000/svg" viewBox="0 0 500 500"><path d="M408 272s-4 4-4 9v24h35v-25s0-7-4-8z" fill="#f5f5f5"/><path d="M406 304a68 68 0 010-8 6 6 0 014-5h6a15 15 0 009-1l7-3c2-1 4 0 5 2a6 6 0 010 2v13h-31M401 309l6-4h32l6 4h-44" fill="#e0e0e0"/><path d="M400 229v36h45v44h-44v10h75v-90a8 8 0 00-8-8h-60a8 8 0 00-8 8z" fill="#f5f5f5"/><path d="M476 230zM455 319zM396 293v-11a15 15 0 012-9c2-2 4-4 7-4h30v3h-30s-5 1-6 8a72 72 0 000 13zM415 449h12v21h-12zM468 449h12v21h-12zM389 320h99v129h-99z" fill="#e0e0e0"/><path fill="#f5f5f5" d="M371 320h96v129h-96zM379 449h12v21h-12zM448 449h12v21h-12z"/><path d="M459 434v-1-1-7-23h-82v32h82-82v-32h83l-1 23v9z" fill="#e0e0e0"/><path d="M420 418v-1a3 3 0 00-1-1 2 2 0 00-2 0 2 2 0 102 4 3 3 0 001-2 2 2 0 010 2 3 3 0 01-3 0 3 3 0 010-5 3 3 0 013 1 2 2 0 010 1 1 1 0 010 1zM459 396v-1-2-6-23h-82v32-1l59 1h22-81v-32h83l-1 23v9z" fill="#e0e0e0"/><path d="M420 380v-1a2 2 0 00-1-1 2 2 0 00-2 0 2 2 0 000 4 2 2 0 002 0 3 3 0 001-2 2 2 0 010 2 3 3 0 01-3 0 3 3 0 010-5 3 3 0 013 1 2 2 0 010 1 1 1 0 010 1zM459 358v-1-1-7-23h-82v32h82-82v-32h83l-1 24v8z" fill="#e0e0e0"/><path d="M420 342v-1a2 2 0 00-1-1 2 2 0 00-2 0 2 2 0 000 4 2 2 0 002 0 2 2 0 001-1v-1a1 1 0 010 1 2 2 0 010 1 3 3 0 01-3 1 3 3 0 010-5 3 3 0 013 0 2 2 0 010 1 1 1 0 010 1zM468 319z" fill="#e0e0e0"/><path fill="#ebebeb" d="M33 412h76v6H33z"/><path fill="#e0e0e0" d="M88 412h21v6H88z"/><path d="M24 418v26h-4v3h4v18h77v-16h-6v-4h6v-5h2v-2h-3v-20z" fill="#f5f5f5"/><path fill="#e0e0e0" d="M80 418v47h21v-16h-6v-4h6v-5h2v-3h-3v-19H80zM82 447zM82 444zM86 437zM86 457z"/><path d="M31 366v26h-4v3h4v17h77v-16h-5v-3h5v-5h3v-3h-3v-19z" fill="#f5f5f5"/><path fill="#e0e0e0" d="M88 366v46h20v-16h-5v-3h5v-5h3v-3h-3v-19H88zM89 394zM89 392zM93 385zM94 404z"/><path fill="#ebebeb" d="M28 465h76v5H28z"/><path fill="#e0e0e0" d="M83 465h21v5H83z"/><path d="M53 246v24h-4v2h4v16h71v-14h-6v-3h6v-5h2v-2h-3v-18z" fill="#f5f5f5"/><path fill="#e0e0e0" d="M105 246v42h19v-14h-6v-3h6v-5h2v-2l-3-1v-17h-18zM106 272zM106 270zM110 263zM110 281z"/><path fill="#fafafa" d="M168 90h102v91H168z"/><path d="M270 181v-1-5-19-66H168v91h102-102V90h102v91zM207 106zM250 113z" fill="#e0e0e0"/><path fill="#e0e0e0" d="M183 125h5v4h-5zM194 125h4v4h-4zM205 125h4v4h-4zM215 125h4v4h-4zM226 125h4v4h-4zM236 125h4v4h-4z"/><path fill="#ebebeb" d="M247 125h4v4h-4zM183 134h5v4h-5z"/><path fill="#e0e0e0" d="M194 134h4v4h-4z"/><path fill="#ebebeb" d="M204 134h5v4h-5z"/><path fill="#e0e0e0" d="M215 134h4v4h-4zM226 134h4v4h-4zM236 134h5v4h-5zM247 134h4v4h-4zM183 143h5v4h-5zM194 143h4v4h-4zM204 143h5v4h-5z"/><path fill="#ebebeb" d="M215 143h4v4h-4z"/><path fill="#e0e0e0" d="M226 143h4v4h-4zM236 143h4v4h-4zM247 143h4v4h-4zM183 152h5v4h-5zM194 152h4v4h-4zM204 152h5v4h-5zM215 152h4v4h-4zM226 152h4v4h-4z"/><path fill="#ebebeb" d="M236 152h4v4h-4z"/><path fill="#e0e0e0" d="M247 152h4v4h-4zM183 161h5v5h-5z"/><path fill="#ebebeb" d="M194 161h4v5h-4z"/><path fill="#e0e0e0" d="M204 161h5v5h-5zM215 161h4v5h-4zM226 161h4v5h-4zM236 161h5v4h-5zM247 161h4v5h-4z"/><path fill="#ebebeb" d="M425 110h-18V79h18zM371 111h-15V72h15z"/><path d="M356 75a119 119 0 0115 0 60 60 0 01-7 0 60 60 0 01-8 0zM357 77a112 112 0 0114 0 107 107 0 01-14 0zM363 103zM356 107a110 110 0 0114 0 115 115 0 01-14 0zM356 108a121 121 0 0115 0 115 115 0 01-15 0z" fill="#fafafa"/><path fill="#e0e0e0" d="M382 111h-11V68h11z"/><path d="M371 87a11 11 0 011 2l4 3 5 3a11 11 0 011 1 10 10 0 01-2-1l-4-3-4-3a11 11 0 01-1-2zM371 81a65 65 0 015 4 67 67 0 016 5 65 65 0 01-6-4 67 67 0 01-5-5z" fill="#fafafa"/><path fill="#ebebeb" d="M327 111h-6V70h6z"/><path d="M321 75a7 7 0 003 1 7 7 0 002-1 6 6 0 00-2 0 6 6 0 00-3 0z" fill="#fafafa"/><ellipse cx="323.8" cy="74.5" rx="2.5" ry=".3" fill="#fafafa"/><path d="M321 107a7 7 0 003 1 7 7 0 002-1 6 6 0 00-2 0 6 6 0 00-3 0z" fill="#fafafa"/><path d="M321 107a7 7 0 003 0 7 7 0 002 0 7 7 0 00-2-1 7 7 0 00-3 1zM324 101a103 103 0 000-10 103 103 0 000-11v21z" fill="#fafafa"/><path fill="#e0e0e0" d="M356 110h-10V70h10z"/><path d="M353 111l1-1a13 13 0 001-3 7 7 0 00-1-4 6 6 0 00-2-2 5 5 0 00-3-1 3 3 0 00-2 1 2 2 0 00-1 1 2 2 0 001 2 3 3 0 002 1 5 5 0 004-2 6 6 0 002-3 10 10 0 000-5 8 8 0 00-3-4 4 4 0 00-3-1 3 3 0 00-2 1 2 2 0 00-1 1 2 2 0 001 2 4 4 0 002 1 5 5 0 005-2 8 8 0 002-4 11 11 0 00-1-5 7 7 0 00-3-4 5 5 0 00-4 0 2 2 0 00-1 2 3 3 0 000 2 3 3 0 004 1 6 6 0 003-2 9 9 0 002-6 9 9 0 00-1-4 9 9 0 00-2-3 1 1 0 00-1 0 10 10 0 013 3 9 9 0 011 4 9 9 0 01-3 5 6 6 0 01-2 2 3 3 0 01-3-1 2 2 0 01-1-1 2 2 0 011-2 4 4 0 014 1 6 6 0 013 3 11 11 0 010 5 8 8 0 01-2 4 5 5 0 01-4 2 3 3 0 01-2-2 2 2 0 010-2 3 3 0 012 0 4 4 0 012 0 8 8 0 013 4 10 10 0 011 4 6 6 0 01-2 4 5 5 0 01-4 1 3 3 0 01-2-2 2 2 0 010-1 3 3 0 012-1 4 4 0 013 1 6 6 0 012 2 7 7 0 010 4 13 13 0 010 3l-1 1zM345 110h-19V73h19z" fill="#fafafa"/><path d="M327 79a82 82 0 009 1 82 82 0 009-1 84 84 0 00-9 0 83 83 0 00-9 0zM327 82a80 80 0 009 0 80 80 0 009 0 80 80 0 00-9 0 80 80 0 00-9 0zM326 106a90 90 0 0010 0 90 90 0 009 0 85 85 0 00-9 0 86 86 0 00-10 0zM327 103a86 86 0 009 0 86 86 0 009 0 81 81 0 00-9 0 81 81 0 00-9 0z" fill="#e0e0e0"/><path fill="#ebebeb" d="M393 110h-11V69h11z"/><path d="M390 111v-1c0-1 0 0 0 0a13 13 0 001-3 7 7 0 00-1-5 6 6 0 00-1-2 5 5 0 00-4 0 3 3 0 00-1 0 2 2 0 00-1 2 2 2 0 001 2 3 3 0 002 1 5 5 0 004-2 6 6 0 002-4 11 11 0 00-1-4 8 8 0 00-3-4 4 4 0 00-2-1 3 3 0 00-2 1 2 2 0 00-1 1 2 2 0 000 1 4 4 0 003 2 5 5 0 004-2 8 8 0 002-4 11 11 0 000-5 7 7 0 00-3-4 5 5 0 00-4 0 2 2 0 00-2 1 3 3 0 001 2 3 3 0 003 1 6 6 0 003-2 9 9 0 002-5 9 9 0 00-1-5 9 9 0 00-1-2 6 6 0 00-1 0 1 1 0 000-1 10 10 0 012 3 9 9 0 011 5 9 9 0 01-2 5 6 6 0 01-3 2 3 3 0 01-3-1 2 2 0 010-2 2 2 0 011-1 4 4 0 014 1 6 6 0 012 3 11 11 0 011 5 8 8 0 01-2 4 5 5 0 01-4 1 3 3 0 01-2-1 2 2 0 010-2 3 3 0 012-1 4 4 0 012 1 8 8 0 012 4 10 10 0 011 4 6 6 0 01-2 4 5 5 0 01-3 1 3 3 0 01-3-2 2 2 0 011-1 3 3 0 011-1 4 4 0 013 1 6 6 0 012 2 7 7 0 011 4 13 13 0 01-1 3v1z" fill="#fafafa"/><path fill="#e0e0e0" d="M321 110h-15V67h15zM407 110h-14V72h14z"/><path d="M407 91a12 12 0 003 2 8 8 0 003 0 7 7 0 003 0l4-2a5 5 0 013 0 3 3 0 011 1 1 1 0 011 1l-1-1a3 3 0 00-1-1 5 5 0 00-3 1l-4 1a8 8 0 01-3 1 8 8 0 01-3-1 7 7 0 01-2-1 2 2 0 01-1-1zM407 95a13 13 0 002 1 8 8 0 003 1 7 7 0 004 0l3-2a5 5 0 013 0 3 3 0 012 1 3 3 0 00-2-1 5 5 0 00-3 0l-3 2a7 7 0 01-4 1 8 8 0 01-3-1 7 7 0 01-1-2 2 2 0 01-1 0zM407 83l9-1 9 1a87 87 0 01-9 0 87 87 0 01-9 0zM401 78a2 2 0 00-1 0 2 2 0 00-1 1 1 1 0 000 1 1 1 0 002 0 1 1 0 000-1 2 2 0 000-1v1a2 2 0 011 1 2 2 0 01-1 1 2 2 0 01-2-1 2 2 0 01-1-1 2 2 0 012-1 2 2 0 011 0zM400 106z" fill="#fafafa"/><path fill="#ebebeb" d="M293 110h146v8H293z"/><path fill="#e0e0e0" d="M427 110h12v8h-12z"/><g><path d="M391 246c7-8 11-11 17-16l11-16c3-6 3-13-1-18a165 165 0 00-20-3l-12-1-4 14 8 4-17 15-14 16 7 20 9 1z" fill="#ffbe9d"/><path d="M403 197a21 21 0 01-2 2l-5 6-6 5a18 18 0 01-2 2 22 22 0 012-2l5-6 6-5a19 19 0 012-2zM416 201l-1-1a6 6 0 00-4-1 6 6 0 00-3 1l-1 1 1-1a5 5 0 017-1l1 2z" fill="#eb996e"/><path d="M385 199a6 6 0 004-7 23 23 0 00-3-4 12 12 0 01-1-2l-1-4c-1-4-2-8-5-10-2-2-6-2-9-4l-6-3c-3-1-4-2-6-1l-3 3c-3 1-6 0-9 2l-3 6-4 5a6 6 0 00-4 6v5a14 14 0 01-2 5c-1 2-2 7-1 8l16 7c4 5 9 10 15 12l2 2c-2 0 15-2 17-12a10 10 0 012-3 18 18 0 003-4 6 6 0 00-2-7z" fill="#263238"/><path d="M369 216a82 82 0 009-12 29 29 0 004-13l-1-6-1 4a25 25 0 00-8 13 65 65 0 00-3 14" fill="#263238"/><path d="M340 247c6 2 20-10 20-10l17-38c5-11 2-23-9-28h-1a21 21 0 00-26 12l-11 25c-4 11 7 16 7 16l-3 6c-2 7 3 16 6 17z" fill="#ffbe9d"/><path d="M337 224a28 28 0 0015 1s-6 7-16 2z" fill="#eb996e"/><path d="M339 192l4 1 2 1v-1a5 5 0 00-2-1 4 4 0 00-3 0h-1zM356 197l3 1 3 1-1-1a5 5 0 00-2-1 4 4 0 00-2 0h-1zM347 205a12 12 0 00-3-1v-1a2 2 0 010-1l3-3 6-8-7 7-2 3a3 3 0 00-1 2 1 1 0 000 1 3 3 0 001 0 11 11 0 003 1zM351 208s0 2-2 2l-4 1h1a5 5 0 003 0 4 4 0 002-2v-1zM360 188l4 1 3 2v-1a7 7 0 00-3-2 7 7 0 00-3-1l-1 1zM344 183l3 1h3l-1-1a4 4 0 00-2-1 4 4 0 00-2 0l-1 1z" fill="#263238"/><path d="M373 207s8 0 5 8-9 3-9 2l4-10z" fill="#ffbe9d"/><path d="M372 215l1 1 3-2a5 5 0 000-2 2 2 0 000-2 1 1 0 00-1 0v0a1 1 0 011 0 2 2 0 011 2 5 5 0 010 2c-1 1-2 3-4 2a1 1 0 01-1 0v-1z" fill="#eb996e"/><path d="M350 172c-1-1 4-3 8-3 5-1 12 1 16 4s7 7 8 12a31 31 0 01-3 16 9 9 0 01-3 4c-1 2-4 2-4 4a3 3 0 01-2 2c-2 1-3-1-3-3-1-3 0-7 2-10a23 23 0 013-7l2-3a5 5 0 001-4 5 5 0 000-1 8 8 0 00-7-4c-5 0-13-1-14-3l-2-5z" fill="#263238"/><path d="M374 171a17 17 0 00-13-4 9 9 0 00-6 3c-2 2-2 5 0 7 3 2 5 3 8 3h9a16 16 0 019 3 26 26 0 00-7-12z" fill="#263238"/><path d="M384 187a7 7 0 01-1 2 16 16 0 01-5 3 16 16 0 01-5 2 7 7 0 01-2 0 20 20 0 0013-7zM387 190a2 2 0 01-1 0 14 14 0 01-1 3 17 17 0 01-6 5 17 17 0 01-8 2 15 15 0 01-2-1 3 3 0 01-1 0h3a18 18 0 008-2 18 18 0 006-5l2-2z" fill="#455a64"/><path d="M290 271l-36-37-7 12 9 18s10 17 16 23l5 4z" fill="#ffbe9d"/><path d="M241 223l-9-1a3 3 0 00-1 0l-4 3-3 6 1 1-1 6a2 2 0 003 0 26 26 0 003-5h4-1l-4 1-1 4 1 4 3 2h1l2 1s3-2 1-4l3 2 8 3 7-6 1-5-11-11a11 11 0 00-3-1z" fill="#ffbe9d"/><path d="M236 241v-1a4 4 0 00-2-2v-1a5 5 0 000-3 10 10 0 010-1v1a5 5 0 010 3h1a4 4 0 011 3v1zM233 244a4 4 0 000-1 4 4 0 000-3l-1-1a2 2 0 00-1-3l-1-1 2 1a3 3 0 010 3h1a5 5 0 011 2 3 3 0 010 2l-1 1zM234 237l-1 1-1 1 1-1 1-1z" fill="#eb996e"/><path d="M235 242l-1-1-1-2 2 1v2zM238 242l1-4v-5a9 9 0 010 5 9 9 0 01-1 4zM229 228v1a7 7 0 01-1 2 4 4 0 01-2 1h-1 1a4 4 0 001-2 11 11 0 002-2zM234 232l1-1-1 1c-1 1 0 0 0 0z" fill="#eb996e"/><path d="M208 222v15c0 5 20 5 20 0v-15z" fill="#455a64"/><path d="M228 224a11 11 0 013 0 4 4 0 013 2 4 4 0 010 2 8 8 0 010 4 5 5 0 01-3 2 8 8 0 01-4 1v-3a10 10 0 003 0 3 3 0 001-1 5 5 0 001-3 2 2 0 000-2 2 2 0 00-2 0 7 7 0 00-2 0" fill="#455a64"/><path d="M221 191a1 1 0 01-1 0 1 1 0 01-1 0 2 2 0 01-1-1 1 1 0 011-1 2 2 0 013-1 3 3 0 011 3 7 7 0 01-2 4 12 12 0 00-2 3 4 4 0 000 4l4 3a4 4 0 011 2 3 3 0 010 2 8 8 0 01-3 3 12 12 0 00-3 2 7 7 0 00-1 5 16 16 0 000 1 6 6 0 01-1-1 7 7 0 012-5 11 11 0 013-2 8 8 0 002-3 3 3 0 000-2 3 3 0 000-1l-4-3a4 4 0 01-1-5 12 12 0 013-3 7 7 0 001-4 3 3 0 00-1-2 2 2 0 00-2 0 1 1 0 000 2 1 1 0 001 0h1z" fill="#263238"/><path d="M229 226l8-1 9 3 11 10s-8 6-11 3l-6-9-3-1s-11 0-8-5z" fill="#ffbe9d"/><path d="M252 233l-1-1-5-4-9-2h-8a2 2 0 000 2 5 5 0 002 2 20 20 0 006 1l3 1a64 64 0 004 7l1 2a4 4 0 011 0 4 4 0 01-1 0 21 21 0 01-1-2 55 55 0 01-4-7l-3-1a19 19 0 01-6-1 5 5 0 01-2-1 2 2 0 01-1-2 4 4 0 011-1v-1h8l9 3 5 4 1 1c1 1 0 0 0 0z" fill="#eb996e"/><path d="M228 238h-1a7 7 0 01-1 0 11 11 0 01-1 1 21 21 0 01-7 1 23 23 0 01-7-1 16 16 0 01-2-1h-1l3 1a26 26 0 007 1 23 23 0 007-1l3-1zM228 237a57 57 0 010-7 57 57 0 010-8 61 61 0 010 8 61 61 0 010 7zM218 221a4 4 0 010-1 5 5 0 010-3 12 12 0 013-4 11 11 0 004-4 4 4 0 000-3 6 6 0 00-1-2l-4-3a3 3 0 011-3 2 2 0 010-1h1a3 3 0 00-1 1 3 3 0 000 2c0 2 2 3 3 4a6 6 0 012 2 4 4 0 01-1 3 11 11 0 01-3 5 12 12 0 00-3 3 5 5 0 00-1 3v1z" fill="#263238"/><path d="M87 231l-20-15s8-24 5-27l-30 36 30 25z" fill="#fde68a"/><path d="M87 231l-20-15s8-24 5-27l-30 36 30 25z" opacity=".3"/><path d="M59 229a2 2 0 01-2 0 2 2 0 010-3 2 2 0 013 1 2 2 0 01-1 2" fill="#e0e0e0"/><path d="M42 225l3 3 28-36s0-3-1-3z" fill="#fff" opacity=".6"/><path d="M68 216l-3 1-2 1h3c2 0 2-2 2-2zM69 211h-4l2 1 2-1zM66 205l2 1h0l-2-1zM72 220l-2 2-2 1 3-1 1-2z" fill="#263238"/><path d="M96 217l-17-17s11-24 8-27l-34 33 26 27z" fill="#fde68a"/><path d="M69 212a2 2 0 01-2-1 2 2 0 011-3 2 2 0 012 1 2 2 0 01-1 3" fill="#e0e0e0"/><path d="M53 206l3 2 31-32s1-2 0-3z" fill="#fff" opacity=".6"/><path d="M79 200h-2l-3 1h3l2-1zM81 195h-2l-2-1 2 1h2zM79 188l2 2h2l-2-1-2-1zM83 204l-2 2-2 1 3-1c2-1 1-2 1-2zM88 208s53 42 63 43l11 2 23 10 69 36 22 15 11 22 1 12s-50 6-58 2-70-52-74-56-63-29-87-70z" fill="#263238"/><path d="M61 248s38 36 65 46a327 327 0 0148 23l45 25 58-26-12-21-93-22-95-48s-15 16-16 23zM251 326a24 24 0 0122-12M256 306a13 13 0 01-4 14" fill="#263238"/><path d="M223 282a5 5 0 011 1 100 100 0 0112 6l9 6 2 2a5 5 0 011 1 5 5 0 01-1-1l-3-2-8-5-9-6-3-1a4 4 0 01-1-1zM233 349v-1l-2-1-5-3-18-13-27-18-16-12-8-6-9-5-18-11-16-11-14-10a140 140 0 01-12-10 109 109 0 01-14-17l-2-3-2-2-1-1v-1l1 1v1l2 2 2 3a112 112 0 0015 17 145 145 0 0011 9l15 11 16 10 17 11 9 6 9 6 15 11 27 19 18 13 5 3 2 1a5 5 0 010 1z" fill="#455a64"/><path d="M334 230s-18 10-22 14l-38 39s-23 7-22 9c1 4 8 10 11 13a32 32 0 014 5l14 18a44 44 0 017 20l16-9c8-3 13-12 22-17l27-29 9-17 2-42-4 1-15 2s-13-2-11-7z" fill="#fde68a"/><path d="M349 241l12-5a111 111 0 0110-9s-15 19-2 26 25-11 25-11a86 86 0 00-4 8l-10 14a19 19 0 01-5 10c-4 6-10 15-14 17l-13 6a119 119 0 01-2-30l3-26z" fill="#fde68a"/><path d="M368 257a6 6 0 01-1-1 21 21 0 01-2-3 10 10 0 01-3-4 17 17 0 011-7 34 34 0 015-11l2-2a6 6 0 011-1 6 6 0 01-1 1l-2 3a36 36 0 00-5 10 17 17 0 000 7 10 10 0 002 4l3 4z" fill="#263238"/><path d="M366 272l-1 1a18 18 0 01-6 1 8 8 0 01-4-1 7 7 0 01-3-3c-1-3-2-7-1-11a40 40 0 012-10 36 36 0 014-7l3-5 1-1h1a2 2 0 01-1 0l-1 2-3 4a36 36 0 00-4 8 42 42 0 00-2 9l1 10a7 7 0 003 4 8 8 0 004 0 20 20 0 006 0l1-1zM361 235a25 25 0 01-2 2 43 43 0 00-5 5 44 44 0 00-4 5 24 24 0 01-1 2 11 11 0 011-2 33 33 0 014-6 33 33 0 015-4 12 12 0 012-2z" fill="#263238"/><path d="M362 235a46 46 0 00-13 30l1 3a1 1 0 001-1 6 6 0 000-2l2-16c1-5 6-10 9-14zM369 229l-8 12c-2 4-2 11 1 15 0 1 2 3 3 2a2 2 0 001-3 11 11 0 00-2-2c-2-4-2-8-1-12s4-8 6-11M262 303a53 53 0 0019 8 1171 1171 0 0163-7h-82" opacity=".3"/><path d="M316 348a3 3 0 011 0 9 9 0 012 0 12 12 0 018 3 13 13 0 012 4 9 9 0 011 4 9 9 0 010 2 3 3 0 010 1 19 19 0 000-3 9 9 0 00-1-4 13 13 0 00-3-3 13 13 0 00-7-4 20 20 0 00-3 0z" fill="#263238"/><rect x="214.2" y="348.2" width="115.8" height="22.4" rx="10.3" fill="#455a64"/><rect x="343.1" y="241" width="17.8" height="139.3" rx="8.2" transform="rotate(34 352 311)" fill="#455a64"/><path d="M262 325s7 7 8 11l5 20c1 6 4 11 11 11l30 1a5 5 0 005-3l26-40h-9l-22 34h-26a6 6 0 01-5-2 4 4 0 010-2l-5-20a96 96 0 00-6-10z" fill="#263238"/><path d="M289 363a2 2 0 11-2-2 2 2 0 012 2zM318 363a2 2 0 11-2-2 2 2 0 012 2z" fill="#455a64"/><rect x="252.6" y="319.5" width="101.7" height="5.5" rx="2.5" fill="#263238"/><path d="M295 320h-41a2 2 0 00-1 2 2 2 0 002 2 12 12 0 005 1h91-91a13 13 0 01-6-1 3 3 0 01-1-2 2 2 0 010-1 3 3 0 011-1 5 5 0 012-1h39z" fill="#455a64"/><path d="M274 350a5 5 0 010-1l-1-3a87 87 0 00-3-9 34 34 0 00-2-5 28 28 0 00-3-4l-3-3a6 6 0 011 1 18 18 0 012 2 24 24 0 013 3 31 31 0 012 5 67 67 0 013 10l1 3a4 4 0 010 1z" fill="#455a64"/><path fill="#263238" d="M271 371h6v81h-6z"/><path fill="#263238" d="M276 439l67 13v7l-67-10v-10z"/><circle cx="337.1" cy="464.1" r="5.9" fill="#263238"/><path fill="#263238" d="M274 439l-54 13v7l54-11v-9z"/><circle cx="226" cy="464.1" r="5.9" fill="#263238"/><circle cx="274.1" cy="464.1" r="5.9" fill="#263238"/><path fill="#263238" d="M281 458h-14l1-51h13v51z"/><path d="M281 407a40 40 0 01-7 1 40 40 0 01-6-1 40 40 0 016 0 40 40 0 017 0zM280 450a40 40 0 01-6 0 40 40 0 01-7 0 40 40 0 017-1 40 40 0 016 1z" fill="#455a64"/></g><g><path fill="#455a64" d="M48 290h319v13H48z"/><path d="M116 290h-1c-1 0 0 0 0 0a7 7 0 01-1 2 9 9 0 01-4 1 22 22 0 01-4 0 41 41 0 01-5-1 46 46 0 00-6-1 36 36 0 00-13 3l-13 5a36 36 0 01-6 1 25 25 0 01-5 0 18 18 0 01-7-2 11 11 0 01-2-2 15 15 0 002 1 18 18 0 007 3 25 25 0 005 0 36 36 0 006-2l13-4a36 36 0 0113-3 45 45 0 016 1 43 43 0 005 1 22 22 0 004-1 9 9 0 003 0 8 8 0 003-2z" fill="#263238"/><path d="M81 290a6 6 0 01-1 1 21 21 0 01-3 2 25 25 0 01-5 2 26 26 0 01-6 1 24 24 0 01-11-3 7 7 0 01-3-2 4 4 0 010-1s-1 0 0 0a8 8 0 000 1 7 7 0 003 2 25 25 0 0011 2 26 26 0 0011-3 27 27 0 003-1 9 9 0 011-1zM155 299a5 5 0 011 0 9 9 0 007-1v1a13 13 0 00-7-3 13 13 0 00-9 2 1 1 0 00-1 1 1 1 0 001 1 4 4 0 001 1h1l6 1a34 34 0 006 0 23 23 0 003 0h2a8 8 0 001-1 5 5 0 002-1 2 2 0 001-2 4 4 0 00-2-2 12 12 0 00-2-1 29 29 0 00-9-2 37 37 0 00-15 2 38 38 0 00-9 5l-2 2-1 1 1-1 2-2a36 36 0 019-5 37 37 0 0115-2 29 29 0 019 2 13 13 0 012 1 4 4 0 012 2 3 3 0 010 2 5 5 0 01-3 2 8 8 0 01-1 0h-2a24 24 0 01-3 1 34 34 0 01-6-1l-6-1h-1a5 5 0 01-1-1 2 2 0 01-1 0 1 1 0 010-1 2 2 0 011-1 14 14 0 019-2 13 13 0 017 3 9 9 0 01-6 0 6 6 0 01-2 0zM196 290a2 2 0 011 1 5 5 0 010 2 10 10 0 01-3 6 16 16 0 01-3 2 13 13 0 01-3 2 13 13 0 01-2 0 3 3 0 01-1 0h3a14 14 0 003-2 16 16 0 003-2 11 11 0 003-6 7 7 0 00-1-3zM254 303l-2-2a10 10 0 00-5-2 11 11 0 00-4 0 16 16 0 01-4 1 9 9 0 01-4-3 15 15 0 00-5-2 16 16 0 00-10 0 23 23 0 00-7 3 40 40 0 00-4 4l-1 1a3 3 0 01-1 0 3 3 0 011 0l1-1a36 36 0 014-4 23 23 0 017-4 17 17 0 0110 0 15 15 0 015 3 9 9 0 004 2 16 16 0 004 0 11 11 0 014 0 10 10 0 015 2 7 7 0 012 2zM305 290a4 4 0 01-1 0l-1 1a30 30 0 01-4 5 37 37 0 01-8 4 32 32 0 01-6 2 27 27 0 01-5 0 29 29 0 01-11-2 37 37 0 01-8-4 32 32 0 01-5-5 16 16 0 01-1-1 3 3 0 01-1 0 4 4 0 011 0l1 1a34 34 0 005 4 37 37 0 008 5 29 29 0 0011 2 27 27 0 005-1 34 34 0 005-1 38 38 0 008-5 32 32 0 005-4l1-1a3 3 0 011 0z" fill="#263238"/><path d="M297 290h-1a33 33 0 01-3 2 34 34 0 01-5 2 22 22 0 01-6 1 27 27 0 01-12-3 26 26 0 01-3-2h-1a10 10 0 011 0 32 32 0 003 2 28 28 0 0012 3 23 23 0 006-1 36 36 0 005-2l3-2a10 10 0 011 0zM353 291a3 3 0 01-1 0h-12l-6 1-11 2a108 108 0 00-11 3l-4 1-2 1-2 1-3 1-1 1h-1l-1 1 1-1h1l1-1 3-1 2-1 1-1 5-2a107 107 0 0111-3l11-2h19zM259 302a15 15 0 00-1-2 16 16 0 00-7-3 34 34 0 00-5-1l-6-1a49 49 0 01-6-2 42 42 0 00-7-1 28 28 0 00-13 1 48 48 0 00-5 3l-5 2-6 4-2 1h-1 1l2-1a126 126 0 0110-6 49 49 0 016-3 28 28 0 0113-2 41 41 0 017 2 51 51 0 006 1l6 1a34 34 0 015 2 16 16 0 017 3 8 8 0 011 2zM188 290a3 3 0 010 1 10 10 0 01-1 2 13 13 0 01-5 6 33 33 0 01-7 4h-2a4 4 0 01-1 0l3-1a38 38 0 007-3 14 14 0 005-6 18 18 0 001-3zM114 303l3-2a65 65 0 018-5l8-5 3-1a7 7 0 011 0 5 5 0 01-1 0l-2 2-9 4a80 80 0 00-8 5l-2 2a6 6 0 01-1 0zM129 290h-2a15 15 0 00-6 2 49 49 0 00-7 5 36 36 0 01-4 2 23 23 0 01-5 2 46 46 0 01-10 1l-8 1a42 42 0 00-6 0h-1a3 3 0 01-1 0 2 2 0 011 0h1a36 36 0 016-1h8a47 47 0 0010-1 23 23 0 005-2 34 34 0 004-3 47 47 0 017-4 14 14 0 016-2 9 9 0 011 0z" fill="#263238"/><path fill="#455a64" d="M77 470h-4l-3-168h10l-3 168z"/><path fill="#263238" d="M369 470h-4l2-167h10l-8 167zM351 290h41v13h-41z"/></g><g><path fill="#fde68a" d="M101 266l3 24h22l5-24h-30z"/><path d="M128 281zM128 280zM128 279zM107 288a19 19 0 01-1-3 20 20 0 010-3 19 19 0 010 3 18 18 0 011 3zM108 288a25 25 0 010-3 24 24 0 010-3 14 14 0 010 3 15 15 0 010 3zM111 288a16 16 0 01-1-3 14 14 0 010-3 27 27 0 011 3 28 28 0 010 3zM113 288a25 25 0 010-6 79 79 0 010 6zM116 288a36 36 0 010-6 36 36 0 010 6zM118 288a19 19 0 010-3 19 19 0 010-3 19 19 0 011 3 18 18 0 01-1 3zM121 288a20 20 0 010-3 20 20 0 010-3 22 22 0 010 3 21 21 0 010 3zM124 288a11 11 0 010-3 10 10 0 011-3l-1 3a25 25 0 010 3z" fill="#fafafa"/><path d="M98 261v4a2 2 0 002 2h31a2 2 0 002-2v-4z" fill="#fde68a"/><path d="M101 267v2l29 2v-4h-29z" opacity=".4"/><path d="M109 261c-4-3-7-9-7-14s2-10 6-13a14 14 0 0115 0 15 15 0 017 13 18 18 0 01-7 14" fill="#455a64"/><path d="M117 261a6 6 0 010-1l-1-3v-10-10l-1-4a6 6 0 010-1 6 6 0 011 1 108 108 0 011 14v13a7 7 0 010 1zM104 246a3 3 0 01-2 0h-2a3 3 0 012 0h2zM104 242l-1-1-2-1 2 1 1 1zM106 238l-1-1-1-1 1 1 1 1zM109 235l-1-1-1-1 1 1 1 1zM112 233l-1-1v-2l1 1v2zM118 230v0zM123 232l-1 1-1 1 1-1 1-1zM127 235l-1 1h-1l1-1h1zM130 239h-2l-1 1 1-1h2zM131 243h-3 3zM131 248h-1l-1-1h1l1 1zM131 252a3 3 0 01-2 0l-1-1h1l2 1zM128 256l-1-1-1-1 1 1 1 1zM107 257l-2 1a4 4 0 01-1 0l1-1h2zM105 253l-1 1h-2 1l2-1zM103 250h-3 3zM108 248l-1 1h-2l2-1h1zM112 244l-1 1-1-1h2zM113 241h-1l-1-1h1l1 1zM114 238v-1l-1-1 1 1v1zM112 251h-1a4 4 0 010 1v-1 1-1h1zM113 257h-1l-1 1 1-1h1zM109 254l-1 1h-1l1-1h1zM109 243l-1-1h-2 2l1 1zM120 241l-1 1-1 1 1-1 1-1zM121 247h-1-1 2zM121 253h-1l-1-1 1 1h1zM120 260l-1-1-1-1 1 1 1 1zM120 237l-1 1h-1 1l1-1zM125 243h-1-2 3zM124 238l-1 1h-2l2-1h1zM126 251a3 3 0 01-2 0 3 3 0 01-2-1 6 6 0 012 0 6 6 0 012 1zM124 258l-1-1-1-1 1 1 1 1z" fill="#263238"/><path d="M115 232a19 19 0 00-3 3 18 18 0 00-5 10 23 23 0 000 6 48 48 0 001 5l1 4a7 7 0 011 1 8 8 0 01-1-1l-1-4a42 42 0 01-1-5 23 23 0 010-6 18 18 0 014-10 13 13 0 013-3 8 8 0 011 0zM121 261l2-4a26 26 0 001-12 22 22 0 00-2-6 15 15 0 00-3-5 11 11 0 00-3-2h-1a6 6 0 011 0 10 10 0 014 2 15 15 0 013 4 22 22 0 012 7 25 25 0 01-2 12v2l-1 1a10 10 0 01-1 1z" fill="#263238"/><path d="M394 404c-8 2-18 0-24-5s-11-11-15-18c-2-2-3-5-4-9s0-7 3-9c4-3 10-2 15 1a51 51 0 0125 40M386 422c-5 6-13 8-20 9s-15-2-22-5c-2-1-5-2-6-5a6 6 0 012-5 13 13 0 015-4 34 34 0 0121-1c8 2 14 6 20 11M394 372c-6 0-11-5-14-11a40 40 0 01-4-25c1-3 2-6 5-8s7 0 9 2l5 8c3 11 2 23-1 34M414 406a74 74 0 01-6-60c1-3 3-6 6-7 4 0 6 4 7 8 4 12 3 26 2 39 0 8-3 15-9 20M425 413a43 43 0 0126-27c2-1 6-1 8 1s1 5 0 8c-2 4-5 8-9 11l-10 8c-4 2-11 2-15-1" fill="#fde68a"/><path d="M360 367v1h1l2 2 1 1 2 1 5 4 2 2 3 3 5 6a116 116 0 0119 31l3 7 1 4 1 3 1 6 1 2v2l1 3a1 1 0 000 1 1 1 0 000-1v-3l-1-2v-2l-2-6v-3l-2-4-2-7a125 125 0 00-9-17 123 123 0 00-11-14l-5-6-3-3-2-2-5-4-2-1-1-1-2-2h-1v-1z" fill="#263238"/><path d="M346 417a3 3 0 001 0h2a57 57 0 017-1 56 56 0 0145 18 59 59 0 015 6l1 2a6 6 0 001 1 3 3 0 00-1-1l-1-2a52 52 0 00-4-6 55 55 0 00-46-19 50 50 0 00-8 1l-1 1a5 5 0 00-1 0zM385 335a1 1 0 000 1l1 3 2 12 9 37a915 915 0 018 37l2 7v5l1 3v-3l-1-5-1-7a448 448 0 00-8-37l-9-37-3-12-1-3a1 1 0 000-1zM409 440a1 1 0 000-1l1-3 1-9a330 330 0 005-61v-6l-1-4v-2-1 7l1 6a278 278 0 01-7 70v3a1 1 0 000 1z" fill="#263238"/><path d="M408 442a3 3 0 000-1l1-1 1-2v-1l1-2 1-2 1-2 1-2 3-5a115 115 0 018-10 124 124 0 019-9l5-4 2-1 1-2 4-2 2-2 2-1a3 3 0 001 0 3 3 0 00-1 0l-2 1-2 2-4 2-2 1-2 2-4 4a121 121 0 00-9 9 109 109 0 00-8 10l-3 5-1 2-1 2-1 2-1 2-1 1v2l-1 1a3 3 0 000 1zM364 388h3a59 59 0 0116 3l3 1a3 3 0 00-1 0l-2-1a48 48 0 00-16-3h-2a3 3 0 00-1 0zM356 427a30 30 0 014-7 30 30 0 016-4 7 7 0 00-2 1 19 19 0 00-4 3 19 19 0 00-3 5 7 7 0 00-1 2zM383 350l4 4 4 5a30 30 0 00-8-9zM389 339a19 19 0 00-1 4 18 18 0 000 4 19 19 0 001-4 18 18 0 000-4zM409 373a53 53 0 003 7 54 54 0 003 6 50 50 0 00-3-6 49 49 0 00-3-7zM421 362a29 29 0 00-3 4 30 30 0 00-2 5 59 59 0 005-9z" fill="#263238"/><path d="M438 402l4-1h5a19 19 0 00-9 1zM426 437l-6 31a4 4 0 01-4 3h-17a4 4 0 01-5-3l-5-31z" fill="#263238"/><path fill="#455a64" d="M424 447h-33l-2-10h37l-2 10z"/><path fill="#fafafa" d="M424 447l-1 4h-31l-1-4h33z"/></g><g><circle cx="103.6" cy="83.5" r="40.1" transform="rotate(-45 104 83)" fill="#fde68a"/><circle cx="103.5" cy="83.3" r="37.8" transform="rotate(-57 103 83)" fill="#fafafa"/><path d="M66 81v9a36 36 0 004 10 38 38 0 009 12l1 1 2 1 2 1 2 1 1 1h1l2 1 2 1a19 19 0 002 1 36 36 0 005 1h7l3-1a41 41 0 0010-3l2-1h2l1-1a42 42 0 004-4 44 44 0 004-4l1-1 1-1 1-1a9 9 0 001-1l1-3 1-3a40 40 0 003-11 40 40 0 00-1-12l-1-3-1-3a9 9 0 00-1-1v-1l-1-2-1-1a43 43 0 00-3-5 41 41 0 00-4-3l-1-1-1-1-3-2a41 41 0 00-4-2 40 40 0 00-5-2l-3-1h-1-6a34 34 0 00-5 0 19 19 0 00-2 0l-3 1h-2l-1 1h-1l-2 1-2 1-2 1-1 1a38 38 0 00-11 10 36 36 0 00-4 10 19 19 0 00-1 2v2l-1 1v-1l1-2a20 20 0 010-2 36 36 0 015-10 38 38 0 0110-10l2-2 2-1 2-1h2l1-1h1l2-1h3a18 18 0 012 0 35 35 0 015-1h2l3 1h2l3 1a41 41 0 015 1 40 40 0 015 3l2 1 1 1 1 1a42 42 0 014 4 43 43 0 014 5v1l1 1 1 2a9 9 0 010 1l1 3 1 3a41 41 0 012 12 40 40 0 01-3 12l-1 2-2 3a9 9 0 01-1 1l-1 1v2l-1 1a44 44 0 01-4 4 42 42 0 01-5 3l-1 1-1 1-3 1a42 42 0 01-10 3h-4-6a35 35 0 01-5-1 21 21 0 01-2-1h-2l-3-1-1-1h-1l-1-1-2-1-2-2-1-1a38 38 0 01-9-11 36 36 0 01-4-11v-2-2-1-2-2z" fill="#263238"/><path d="M103 52a10 10 0 011 3 10 10 0 01-1 3 11 11 0 010-3 11 11 0 010-3zM121 57a11 11 0 01-2 2 11 11 0 01-3 2 10 10 0 012-2 10 10 0 013-2zM131 68a14 14 0 01-3 2 13 13 0 01-3 1 8 8 0 013-2 8 8 0 013-1zM137 84a20 20 0 01-5 0 20 20 0 01-4 0 19 19 0 014 0 19 19 0 015 0zM77 84a17 17 0 01-5 0 17 17 0 01-4 0 18 18 0 014-1 18 18 0 015 1zM81 96a17 17 0 01-3 2 18 18 0 01-4 3 18 18 0 013-3 18 18 0 014-2zM91 105a29 29 0 01-2 4 28 28 0 01-2 3 14 14 0 012-4 14 14 0 012-3zM103 117a20 20 0 010-4 20 20 0 010-4 19 19 0 011 4 19 19 0 01-1 4zM122 111a19 19 0 01-6-5 40 40 0 013 3 39 39 0 013 2zM131 102a15 15 0 01-3-2 16 16 0 01-3-3 15 15 0 013 2 15 15 0 013 3zM80 72a12 12 0 01-2-2 11 11 0 01-2-3 11 11 0 012 2 12 12 0 012 3zM91 60a11 11 0 01-2-2 11 11 0 01-2-2 11 11 0 012 2 11 11 0 012 2zM103 63a7 7 0 011 2v19l-1-1-9-4-3-2a5 5 0 01-1 0 5 5 0 011 0l3 1 9 5v-2-13-3a7 7 0 010-2z" fill="#263238"/></g><g><path d="M158 246l18 41a6 6 0 005 3h84a4 4 0 00-3-3l-32-1-17-39a3 3 0 00-3-2l-51-1a2 2 0 00-1 2z" fill="#e0e0e0"/><path d="M158 246a2 2 0 010-1 2 2 0 011-1h51a4 4 0 012 1 4 4 0 012 2l1 2 15 37h32a4 4 0 013 2 4 4 0 011 2h-84-1a5 5 0 01-2 0 6 6 0 01-3-3l-2-5-12-26-3-7-1-2v-1 1l1 2 3 7 12 26 2 4a6 6 0 004 3 7 7 0 002 1h83a4 4 0 000-2 3 3 0 00-2-1 3 3 0 00-1 0h-15l-17-1-16-37-1-2a3 3 0 00-1-2 4 4 0 00-2 0h-11l-14-1h-25-1a2 2 0 00-1 1 2 2 0 000 1z" fill="#263238"/><path d="M228 290l-1-1-2-5a1045 1045 0 01-15-39 2 2 0 01-1-1 2 2 0 011 1v1l2 5 7 16 7 17 2 4v2z" fill="#455a64"/><path d="M195 266a3 3 0 11-2-3 3 3 0 012 3z" fill="#fff"/></g><g><path d="M314 203l-6-11a32 32 0 10-8 8z" fill="#fafafa"/><path d="M314 203l-14-3a32 32 0 01-15 6 29 29 0 01-5 1h-3l-3-1a32 32 0 01-19-13 32 32 0 01-6-12 32 32 0 011-14 31 31 0 016-13 32 32 0 0113-9 32 32 0 0114-2 31 31 0 0113 4 32 32 0 0115 19 34 34 0 011 10 31 31 0 01-4 16v-1l6 12-7-11v-1a32 32 0 005-15 34 34 0 00-1-10 32 32 0 00-15-19 31 31 0 00-13-3 32 32 0 00-14 2 31 31 0 00-12 8 31 31 0 00-7 13 32 32 0 000 14 31 31 0 005 12 32 32 0 0020 13h5a29 29 0 005 0 31 31 0 0015-6z" fill="#263238"/><path d="M273 176v3h-1v-3l-1-1-1 2v2h-2v-3l-1-1-1 2v2h-2v-5h2a2 2 0 011 0 2 2 0 012 1 2 2 0 012-1 2 2 0 012 2zM284 176v3h-2v-3l-1-1-1 2v2h-2v-3l-1-1-1 2v2h-1v-5h1a2 2 0 012 0 2 2 0 012 1 2 2 0 012-1 2 2 0 012 2zM294 176v3h-1v-3l-1-1-2 2v2h-1v-3l-1-1-1 2v2h-2v-5h2a2 2 0 011 0 2 2 0 012 1 2 2 0 012-1 2 2 0 012 2zM295 178a1 1 0 012 0 1 1 0 11-2 0zM298 178a1 1 0 012 0 1 1 0 11-2 0zM300 178a1 1 0 012 0 1 1 0 11-2 0z" fill="#263238"/></g></svg>