<svg xmlns="http://www.w3.org/2000/svg" viewBox="0 0 500 500"><path d="M61 76l13-1h14v12H60l1-6zm0 0v11-1h26v1-11H74zM76 61h26v12H75v-6zm0 0v12l-1-1h27v1-12 1H89zM101 205h27v12h-27v-1-5zm0 0v11h27-1v-11l1 1h-14zM116 191h27v12h-27v-1-5zm0 0v11h26v-11 1h-6l-7-1zM46 61h27v12H46v-6zm0 0v12-1h26v1-12 1H59zM439 305h-27v-12h28l-1 6zm0 0v-6-6 1h-26v-1 12-1h13zM454 319h-27v-12h27v6zm0 0v-6-6 1h-26v-1 12-1h13zM87 319H61l-1-12h28v6zm0 0v-6-6 1H61l1-1-1 12v-1h13zM413 61h27v12h-28l1-6zm0 0v12-1h26v1-12 1h-13zM207 188H80v-87h127zm-126-1h125v-85H81z" fill="#ebebeb"/><path d="M90 107a3 3 0 11-3-3 3 3 0 013 3z" fill="#a6a6a6"/><path d="M100 107a3 3 0 11-2-3 3 3 0 012 3z" fill="#ebebeb"/><path d="M110 107a3 3 0 11-2-3 3 3 0 012 3z" fill="#a6a6a6"/><path fill="#ebebeb" d="M80 111h126v1H80z"/><path fill="#fff" d="M405 91h42v43h-42z"/><path d="M402 89v47h47V89zm45 45h-42V91h42z" fill="#dbdbdb"/><path fill="#ebebeb" d="M444 111v15h-33v-15z"/><path fill="#c7c7c7" d="M434 104v17h-17v-17zM449 89h2v47h-2z"/><path fill="#fff" d="M405 151h42v43h-42z"/><path fill="#c7c7c7" d="M412 158h11v32h-11z"/><path d="M402 149v47h47v-47zm45 45h-42v-43h42z" fill="#dbdbdb"/><path fill="#ebebeb" d="M417 164h17v17h-17z"/><path fill="#c7c7c7" d="M449 149h2v47h-2z"/><path fill="#fff" d="M405 211h42v43h-42z"/><path fill="#ebebeb" d="M409 217h23v14h-23z"/><path d="M402 209v47h47v-47zm45 45h-42v-43h42z" fill="#dbdbdb"/><path fill="#c7c7c7" d="M417 224h17v17h-17zM449 209h2v47h-2z"/><path fill="#ebebeb" d="M47 254h95v140H47z"/><path fill="#dbdbdb" d="M43 249h103v5H43z"/><path fill="#ebebeb" d="M146 249h33v5h-33z"/><path fill="#dbdbdb" d="M142 254h31v140h-31z"/><path d="M131 314H57v-42h74zm-73 0h73v-42H58z" fill="#c7c7c7"/><path fill="#c7c7c7" d="M84 284h14v9H84z"/><path d="M103 292H88v-7h15zm-15 0h15v-7H88zM131 366H57v-41h74zm-73 0h73v-41H58z" fill="#c7c7c7"/><path fill="#c7c7c7" d="M84 337h14v8H84z"/><path d="M103 345H88v-8h15zm-15-1h15v-6H88z" fill="#c7c7c7"/><g><ellipse cx="250" cy="420.8" rx="194.8" ry="25.3" fill="#ebebeb"/></g><g><path d="M113 304c-3-3-7-7-11-5-5 1-7 6-7 10l-3 15-2 16-2 9v5l-1 4h1l1-7 1-8 2-15 3-15c1-5 1-10 5-13a7 7 0 017 0 21 21 0 016 4z" fill="#263238"/><path d="M109 301s-6-2-9 2 0 17 29 23a81 81 0 00-7-26c-6-13-17-8-13 1z" fill="#fde68a"/><path d="M127 324a24 24 0 00-1-2l-2-2-1-2v-1l1-2v-1a8 8 0 010-2 5 5 0 010 1v1l-1 1v3l-2-2-4-6a52 52 0 010-9 31 31 0 00-1 8 113 113 0 00-6-6l7 8a51 51 0 00-5 0 84 84 0 00-6 1 54 54 0 016-1h5l4 5h-4a40 40 0 00-6 1h10l3 3 1 2 2 3v-1z" fill="#263238"/><path d="M112 307a20 20 0 00-3 0h-3v1l3-1 3 1v-1zM121 310v-3 4a8 8 0 00-1 2h1a8 8 0 000-2zM119 299l-1 3v1a6 6 0 000 2 8 8 0 000-2l1-1a40 40 0 010-3zM82 357l-1-5-1-11-2-11a27 27 0 00-1-4 5 5 0 00-3-3c-3-2-5 2-7 4h1c0-1 3-4 5-4s3 1 4 6l4 34h1v-6z" fill="#263238"/><path d="M68 326s3-10-3-5c-11 8-12 27-12 27s20-11 22-18c4-11-7-4-7-4z" fill="#fde68a"/><path d="M72 331l-5 1h-2-1l4-6a44 44 0 00-3 4l-1-2-1-3v3l1 2-2 3-1-3 1 4a74 74 0 00-4 5v1a181 181 0 001 0l1-1h1l3-1a46 46 0 01-5 1l2-3 2-3h2l3-1 4-1z" fill="#263238"/><path d="M60 332v-1a17 17 0 010-1h-1l1 1a12 12 0 000 2h1l-1-1zM74 329h-5 5zM96 344a420 420 0 00-3-34 83 83 0 00-2-11 21 21 0 00-4-8 8 8 0 00-8-4l-8 5-7 8a185 185 0 005-5l8-6a8 8 0 015 0 7 7 0 013 2 17 17 0 014 7l4 22 1 22a244 244 0 003 25l-1-23z" fill="#263238"/><path d="M71 293s4-8-1-11-23 17-28 46c0 0 28-13 38-25s-1-15-9-10z" fill="#fde68a"/><path d="M75 300H65l2-2a30 30 0 003-3h-1a23 23 0 00-2 2l-2 2-4 4v-5-6 12l-1 1-7 9a4 4 0 000-1v-1l-1-2v-4a22 22 0 010 2v5a4 4 0 000 1 1 1 0 001 0l-2 2-4 6 4-6h7-7l4-5 2-2a7 7 0 001 0h12-12-1l4-4 4-5h10zM73 305h-1 1z" fill="#263238"/><path d="M71 305h-4a6 6 0 00-1 0c-1 0 0 0 0 0a6 6 0 001 0h4zM63 315a42 42 0 00-7-1l7 1zM54 306v-1-1 1a3 3 0 000 1c0 1 0 0 0 0zM95 283c-1-2-2-5-4-4-2 0-3 2-4 4l-1 16-2 35v10l1 10v-9-8l1-17v-16l1-9v-8l1-4a6 6 0 011-3 3 3 0 014 0 8 8 0 012 3s1 0 0 0z" fill="#263238"/><path d="M95 282s-2-7 2-4c8 6 8 19 8 19s-13-7-15-13c-2-7 5-2 5-2z" fill="#fde68a"/><path d="M102 292v-1-1-2 3l-2-2v-1a15 15 0 010-2v-3l-1 3a17 17 0 000 2 119 119 0 00-1-2l-5-1 5 1 2 3 1 1h-1-3c-1 0-1 0 0 0h4l1 2 2 4a35 35 0 00-2-4z" fill="#263238"/><path d="M99 284v-1a13 13 0 010-2v3a1 1 0 000 1 1 1 0 000-1zM97 287h-1l-2-1v1h3zM102 287v1a1 1 0 000 1v-2s-1 0 0 0zM96 322c-3-3-6-6-9-6-4 0-6 2-7 5a27 27 0 00-2 4l-1 6-3 12-1 7a55 55 0 000 7l1-6 1-5 2-12 3-10c1-3 2-6 5-7 4-1 8 2 11 5z" fill="#263238"/><path d="M93 320s-3-8 1-9c6-3 20 14 18 40a146 146 0 01-20-14c-9-7-11-16-7-19s8 2 8 2z" fill="#fde68a"/><path d="M110 345a19 19 0 00-1-2l-2-3-3-5v-1-1-2l1-3-1 3-1 2v1l-4-6a3 3 0 000-1l1-1v-3l1-5-1 5-1 3v1l-1-2-4-5a90 90 0 016 10l1 2-2-1h-8l6 1h2a11 11 0 003 0l2 4h-7 6a2 2 0 001 0l2 4 2 2a25 25 0 002 3z" fill="#263238"/><path d="M104 325a18 18 0 010 2l-1 2 1-2 1-3-1 1zM96 330a1 1 0 00-1-1h-3l-4-1v1h7a3 3 0 011 1zM104 341h-3a3 3 0 01-1 0 3 3 0 011 0h3c1 0 1 0 0 0zM108 338l1-1v-2c0-1 0-1 0 0l-1 2v1a1 1 0 000 1 3 3 0 000-1z" fill="#263238"/><path fill="#37474f" d="M70 354v9l3 31h24l4-31 1-9H70z"/><path fill="#263238" d="M70 354v9h31l1-9H70z"/><path fill="#37474f" d="M104 359H67v-7h37z"/></g><g><path d="M328 459c2 1 63 0 66-2l1-20v-7-1l-3-32h-41l4 32v8l-25 13c-2 2-4 8-2 9z" fill="#d3766a"/><path d="M328 459c2 1 63 0 66-2l1-20v-7-1h-40v1l1 7-26 13c-2 2-4 8-2 9z" fill="#ebebeb"/><path d="M328 459a509 509 0 0066-2l1-20h-39l-26 13c-2 2-4 8-2 9z" fill="#fde68a"/><path d="M328 457zM351 437c4-1 9 0 12 2v1a57 57 0 00-12-3zM348 439c4-1 9-1 12 2v1a57 57 0 00-12-3zM345 441c4-1 9-1 12 2 1 0 1 0 0 0a58 58 0 00-12-2zM362 459a1319 1319 0 0032-2l1-20-33 22z" fill="#263238"/><path d="M353 437h44l-8-105a1009 1009 0 0120-80l8-32h-37l-10 32c-9 29-21 69-22 79-2 16 5 106 5 106z" fill="#37474f"/><path d="M355 429h40l-29 1-11-1zM380 325l6-19 11-38 6-19 3-10 3-9v1l-3 10-5 19-12 39-6 20a78 78 0 00-2 9 44 44 0 00-1 10l2 20 2 21 4 40a887 887 0 01-1 5l-3-40-4-40-1-10a41 41 0 011-9z" fill="#263238"/><path d="M384 220l11 85 22-85z" fill="#263238"/><path d="M375 460c2 0 63 0 66-2l1-20v-1-6-1c1-16-1-32-1-32h-40l1 32v8l-25 13c-2 2-4 8-2 9z" fill="#d3766a"/><path d="M375 460c2 0 63 0 66-2l1-20v-1-6-1h-40v8l-25 13c-2 2-4 8-2 9z" fill="#ebebeb"/><path d="M375 460c2 0 63 0 66-2l1-20v-1h-39v1l-26 13c-2 2-4 8-2 9z" fill="#fde68a"/><path d="M375 457h63a1647 1647 0 01-63 0zM398 438c4-1 9-1 12 2 0 0 0 1 0 0a58 58 0 00-12-2zM395 439c4 0 9 0 12 3 1 0 0 0 0 0a57 57 0 00-12-2v-1z" fill="#263238"/><path d="M392 441c4-1 9 0 12 3 1 0 1 0 0 0a57 57 0 00-12-2v-1z" fill="#263238"/><path d="M381 220a164 164 0 006 35 67 67 0 0111 6 14146 14146 0 004 177h44l-8-104a2638 2638 0 00-6-114z" fill="#37474f"/><path d="M403 430l12-1 28 1h-40zM428 226l3 74 5 75 4 47h-1c-3-25-5-55-6-80l-4-74-1-42zM385 254a82 82 0 0113 7l-13-6v-1z" fill="#263238"/><path d="M385 239l1 5 1 4a8 8 0 002 4l2 1 1 1v-1l-1-1v-4l-2-8 2 8 2 8v1a6 6 0 010 1 6 6 0 01-1-1v-1-1l-2-1-2-2a7 7 0 01-2-3 26 26 0 01-1-5v-5z" fill="#263238"/><path d="M401 179c-3 10-19 43-25 45-7 3-33 6-39 1-3-2-3-26 0-25s27 1 30 0 21-27 28-34c13-11 8 7 6 13z" fill="#d3766a"/><path d="M343 199v30s27 0 34-4 22-38 26-51-2-15-12-5-24 30-25 30h-23z" fill="#fde68a"/><path d="M402 166a1 1 0 101 1 1 1 0 00-1-1zm0 1a1 1 0 010-1 1 1 0 010 1zm-21 13v1a1 1 0 002 0 1 1 0 00-2-1zm0 2a1 1 0 111-1 1 1 0 01-1 1zm11-2a1 1 0 00-1 1 1 1 0 101-1zm0 2a1 1 0 111-1 1 1 0 01-1 1zm-5-9a1 1 0 010 1 1 1 0 010 1 1 1 0 01-1-1v1a1 1 0 101-2zm10 0a1 1 0 101 1 1 1 0 00-1-1zm0 2a1 1 0 010-2 1 1 0 010 2zm-26 20a1 1 0 000 2 1 1 0 100-2zm0 2a1 1 0 010-2 1 1 0 110 2zm10-2a1 1 0 101 1 1 1 0 00-1-1zm0 2a1 1 0 010-2 1 1 0 110 2zm11-2a1 1 0 101 1 1 1 0 00-1-1zm0 2a1 1 0 010-2 1 1 0 110 2zm-16-9a1 1 0 00-1 1 1 1 0 002 0 1 1 0 00-1-1zm0 1a1 1 0 110-1 1 1 0 010 1zm11-1a1 1 0 00-1 1 1 1 0 002 0 1 1 0 00-1-1zm0 1a1 1 0 110-1 1 1 0 010 1zm10-1a1 1 0 00-1 1 1 1 0 001 1l1-2a1 1 0 00-1 0zm0 1a1 1 0 111 0 1 1 0 01-1 0zm-47 21a1 1 0 101 1 1 1 0 00-1-1zm0 1a1 1 0 110-1 1 1 0 010 1zm11-1a1 1 0 101 1 1 1 0 00-1-1zm0 1a1 1 0 110-1 1 1 0 010 1zm10-1a1 1 0 101 1 1 1 0 00-1-1zm0 1a1 1 0 010-1 1 1 0 010 1zm10-1a1 1 0 101 1 1 1 0 00-1-1zm0 1a1 1 0 010-1 1 1 0 010 1zm-36-9a1 1 0 000 2 1 1 0 100-2zm0 2a1 1 0 010-1 1 1 0 110 1zm10-2a1 1 0 101 1 1 1 0 000-1zm0 2a1 1 0 010-1 1 1 0 110 1zm11-2a1 1 0 101 1 1 1 0 00-1-1zm0 2a1 1 0 010-1 1 1 0 110 1zm10-2a1 1 0 101 1 1 1 0 00-1-1zm0 2a1 1 0 110-1 1 1 0 010 1zm11-2a1 1 0 101 1 1 1 0 00-1-1zm0 2a1 1 0 110-1 1 1 0 010 1zm-37 20a1 1 0 00-1 1 1 1 0 002 0 1 1 0 00-1-1zm0 2a1 1 0 110-2 1 1 0 010 2zm11-2a1 1 0 00-1 1 1 1 0 002 0 1 1 0 00-1-1zm0 2a1 1 0 110-2 1 1 0 010 2zm10-2a1 1 0 00-1 1 1 1 0 002 0 1 1 0 00-1-1zm0 2a1 1 0 111-1 1 1 0 01-1 1zm-26-9a1 1 0 101 1 1 1 0 00-1-1zm0 2a1 1 0 010-2 1 1 0 110 2zm10-2a1 1 0 101 1 1 1 0 000-1zm0 2a1 1 0 010-2 1 1 0 110 2zm11-2a1 1 0 101 1 1 1 0 00-1-1zm0 2a1 1 0 010-2 1 1 0 110 2zm10-2a1 1 0 101 1 1 1 0 00-1-1zm0 2a1 1 0 110-2 1 1 0 010 2z" opacity=".2"/><path d="M351 214l-1-14v14a127 127 0 001 14v-14z" fill="#263238"/><path d="M403 174c-4 13-19 48-26 51-3 2-11 3-18 4l41-66c4 0 5 3 3 11z" opacity=".1"/><path d="M437 246l-66-5c-1-1 20-67 25-76 2-4 13-5 17-1 10 10 17 41 19 51l5 31z" fill="#fde68a"/><path d="M402 166a1 1 0 101 1 1 1 0 00-1-1zm0 1a1 1 0 010-1 1 1 0 010 1zm11-1a1 1 0 101 1 1 1 0 00-1-1zm0 1a1 1 0 010-1 1 1 0 010 1zm-21 13a1 1 0 00-1 1 1 1 0 101-1zm0 2a1 1 0 111-1 1 1 0 01-1 1zm10-2a1 1 0 00-1 1 1 1 0 002 0 1 1 0 00-1-1zm0 2a1 1 0 110-1 1 1 0 010 1zm11-2a1 1 0 00-1 1 1 1 0 002 0 1 1 0 00-1-1zm0 2a1 1 0 110-1 1 1 0 010 1zm10 0a1 1 0 01-1-1 1 1 0 011 0 2 2 0 000-1 1 1 0 00-1 1 1 1 0 001 1zm-26-9a1 1 0 101 1 1 1 0 00-1-1zm0 2a1 1 0 010-2 1 1 0 010 2zm10-2a1 1 0 101 1 1 1 0 00-1-1zm0 2a1 1 0 010-2 1 1 0 010 2zm11-2a1 1 0 101 1 1 1 0 00-1-1zm0 2a1 1 0 010-2 1 1 0 010 2zm-26 20a1 1 0 101 1 1 1 0 00-1-1zm0 2a1 1 0 010-2 1 1 0 110 2zm10-2a1 1 0 101 1 1 1 0 00-1-1zm0 2a1 1 0 110-2 1 1 0 010 2zm11-2a1 1 0 101 1 1 1 0 00-1-1zm0 2a1 1 0 110-2 1 1 0 010 2zm10-2a1 1 0 000 2 1 1 0 100-2zm0 2a1 1 0 010-2 1 1 0 110 2zm-36-9a1 1 0 010 1v1a1 1 0 001-1 1 1 0 00-1-1zm10 0a1 1 0 00-1 1 1 1 0 002 0 1 1 0 00-1-1zm0 1a1 1 0 111 0 1 1 0 01-1 0zm10-1a1 1 0 00-1 1 1 1 0 002 0 1 1 0 00-1-1zm0 1a1 1 0 111 0 1 1 0 01-1 0zm11-1a1 1 0 00-1 1 1 1 0 101-1zm0 1zm-37 21a1 1 0 101 1 1 1 0 00-1-1zm0 1a1 1 0 010-1 1 1 0 010 1zm11-1a1 1 0 101 1 1 1 0 00-1-1zm0 1a1 1 0 010-1 1 1 0 010 1zm10-1a1 1 0 101 1 1 1 0 00-1-1zm0 1a1 1 0 110-1 1 1 0 010 1zm11-1a1 1 0 101 1 1 1 0 00-1-1zm0 1a1 1 0 110-1 1 1 0 010 1zm10-1a1 1 0 101 1 1 1 0 00-1-1zm0 1a1 1 0 010-1 1 1 0 010 1zm-36-9a1 1 0 101 1 1 1 0 00-1-1zm0 2a1 1 0 110-1 1 1 0 010 1zm10-2a1 1 0 000 2 1 1 0 100-2zm0 2a1 1 0 010-1 1 1 0 110 1zm10-2a1 1 0 101 1 1 1 0 00-1-1zm0 2a1 1 0 010-1 1 1 0 110 1zm11-2a1 1 0 101 1 1 1 0 00-1-1zm0 2a1 1 0 010-1 1 1 0 110 1zm10-2a1 1 0 101 1 1 1 0 00-1-1zm0 2a1 1 0 110-1 1 1 0 010 1zm-47 20a1 1 0 00-1 1 1 1 0 002 0 1 1 0 00-1-1zm0 2a1 1 0 111-1 1 1 0 01-1 1zm11-2a1 1 0 00-1 1 1 1 0 101-1zm0 2a1 1 0 111-1 1 1 0 01-1 1zm10-2a1 1 0 00-1 1 1 1 0 002 0 1 1 0 00-1-1zm0 2a1 1 0 110-2 1 1 0 010 2zm11-2a1 1 0 00-1 1 1 1 0 002 0 1 1 0 00-1-1zm0 2a1 1 0 110-2 1 1 0 010 2zm10-2a1 1 0 00-1 1 1 1 0 002 0 1 1 0 00-1-1zm0 2a1 1 0 111-1 1 1 0 01-1 1zm11 0a1 1 0 01-1 0 1 1 0 010-2h0a1 1 0 00-1 1 1 1 0 001 1 1 1 0 001 0zm-47-9a1 1 0 101 1 1 1 0 00-1-1zm0 2a1 1 0 010-2 1 1 0 010 2zm10-2a1 1 0 101 1 1 1 0 00-1-1zm0 2a1 1 0 010-2 1 1 0 010 2zm10-2a1 1 0 101 1 1 1 0 00-1-1zm0 2a1 1 0 010-2 1 1 0 010 2zm11-2a1 1 0 101 1 1 1 0 00-1-1zm0 2a1 1 0 010-2 1 1 0 010 2zm10-2a1 1 0 101 1 1 1 0 00-1-1zm0 2a1 1 0 110-2 1 1 0 010 2zm-57 20a1 1 0 011 1 1 1 0 01-1 0v1a1 1 0 001-1 1 1 0 000-1zm10 0a1 1 0 101 1 1 1 0 00-1-1zm0 1a1 1 0 111 0 1 1 0 01-1 0zm11-1a1 1 0 101 1 1 1 0 00-1-1zm0 1a1 1 0 01-1 0 1 1 0 112 0 1 1 0 01-1 0zm10-1a1 1 0 101 1 1 1 0 00-1-1zm0 1a1 1 0 010-1 1 1 0 011 1 1 1 0 01-1 0zm11-1a1 1 0 101 1 1 1 0 00-1-1zm0 1a1 1 0 01-1 0 1 1 0 011-1 1 1 0 010 1zm10-1a1 1 0 000 2 1 1 0 100-2zm0 1a1 1 0 01-1 0 1 1 0 112 0 1 1 0 01-1 0zm10-1a1 1 0 101 1 1 1 0 00-1-1zm0 1a1 1 0 111 0 1 1 0 01-1 0zm-57-9a1 1 0 00-1 1 1 1 0 002 0 1 1 0 00-1 0zm0 2a1 1 0 110-1 1 1 0 010 1zm11-2a1 1 0 00-1 1 1 1 0 002 0 1 1 0 00-1 0zm0 2a1 1 0 110-1 1 1 0 010 1zm10-2a1 1 0 00-1 1 1 1 0 002 0 1 1 0 00-1 0zm0 2a1 1 0 111-1 1 1 0 01-1 1zm10-2a1 1 0 00-1 1 1 1 0 002 0 1 1 0 00-1 0zm0 2a1 1 0 111-1 1 1 0 01-1 1zm11-2a1 1 0 00-1 1 1 1 0 101-1zm0 2a1 1 0 111-1 1 1 0 01-1 1zm10-2a1 1 0 00-1 1 1 1 0 002 0 1 1 0 00-1 0zm0 2a1 1 0 110-1 1 1 0 010 1z" opacity=".2"/><path d="M422 171c17 19 36 51 28 58s-35 1-53-6c-3-1 10-31 14-29a96 96 0 0011 5c1 0-5-6-10-22-6-15 0-16 10-6z" fill="#d3766a"/><path d="M368 192c0 3 9 2 9 2a6 6 0 00-3 4c-1 2 3 5 3 5a8 8 0 00-2 4c0 2 3 5 3 5a7 7 0 000 4c2 4 9 4 13 5a90 90 0 0114 5l8-31s-18-11-23-10c-5 0-22 2-22 7z" fill="#d3766a"/><path d="M377 194l14-1-14 2v-1zM377 202a12 12 0 013 0h4l7 1h-11a15 15 0 01-3-1zM378 212a9 9 0 013 0 132 132 0 009 0h-9a8 8 0 01-3 0z" fill="#263238"/><path d="M413 195l-6 33s41 10 45 0-20-49-34-60-8 6-8 7c2 7 11 23 11 23z" fill="#fde68a"/><path d="M413 166a1 1 0 101 1 1 1 0 00-1-1zm0 1a1 1 0 010-1 1 1 0 010 1zm0 13a1 1 0 00-1 1 1 1 0 011 0 1 1 0 010 1 1 1 0 001-1 1 1 0 00-1-1zm10 0a1 1 0 00-1 1 1 1 0 002 0 1 1 0 00-1-1zm0 2a1 1 0 111-1 1 1 0 01-1 1zm-5-9a1 1 0 101 1 1 1 0 00-1-1zm0 2a1 1 0 010-2 1 1 0 010 2zm-5 20v2a1 1 0 000-2zm10 0a1 1 0 000 2 1 1 0 100-2zm0 2a1 1 0 010-2 1 1 0 110 2zm10-2a1 1 0 101 1 1 1 0 00-1-1zm0 2a1 1 0 010-2 1 1 0 110 2zm-15-9a1 1 0 00-1 1 1 1 0 101-1zm0 1a1 1 0 111 0 1 1 0 01-1 0zm10-1a1 1 0 00-1 1 1 1 0 002 0 1 1 0 00-1-1zm0 1a1 1 0 110-1 1 1 0 010 1zm-15 21a1 1 0 101 1 1 1 0 00-1-1zm0 1a1 1 0 110-1 1 1 0 010 1zm10-1a1 1 0 101 1 1 1 0 00-1-1zm0 1a1 1 0 010-1 1 1 0 010 1zm10-1a1 1 0 101 1 1 1 0 00-1-1zm0 1a1 1 0 010-1 1 1 0 010 1zm11-1a1 1 0 101 1 1 1 0 00-1-1zm0 1a1 1 0 010-1 1 1 0 010 1zm-26-9a1 1 0 101 1 1 1 0 00-1-1zm0 2a1 1 0 010-1 1 1 0 110 1zm10-2a1 1 0 101 1 1 1 0 00-1-1zm0 2a1 1 0 110-1 1 1 0 010 1zm11-2a1 1 0 101 1 1 1 0 00-1-1zm0 2a1 1 0 110-1 1 1 0 010 1zm-26 20a1 1 0 00-1 1 1 1 0 002 0 1 1 0 00-1-1zm0 2a1 1 0 110-2 1 1 0 010 2zm10-2a1 1 0 00-1 1 1 1 0 002 0 1 1 0 00-1-1zm0 2a1 1 0 111-1 1 1 0 01-1 1zm10-2a1 1 0 00-1 1 1 1 0 002 0 1 1 0 00-1-1zm0 2a1 1 0 111-1 1 1 0 01-1 1zm11-2a1 1 0 00-1 1 1 1 0 101-1zm0 2a1 1 0 110-1 1 1 0 010 1zm-26-9a1 1 0 101 1 1 1 0 00-1-1zm0 2a1 1 0 010-2 1 1 0 010 2zm10-2a1 1 0 101 1 1 1 0 00-1-1zm0 2a1 1 0 110-2 1 1 0 010 2zm11-2a1 1 0 101 1 1 1 0 00-1-1zm0 2a1 1 0 110-2 1 1 0 010 2zm10-2a1 1 0 101 1 1 1 0 00-1-1zm0 2a1 1 0 010-2 1 1 0 110 2zm-21 12a1 1 0 000 1h1a1 1 0 00-1 0zm11 0a1 1 0 00-1 1 1 1 0 011 0h1a1 1 0 00-1 0z" opacity=".2"/><path d="M414 195a98 98 0 0120 10l-20-10a3 3 0 01-1 0 6 6 0 010-1zM418 213l2-14-3 14a127 127 0 00-2 14l3-14z" fill="#263238"/><path d="M421 198l-4-8-4-9 2 6a21 21 0 01-2-3 10 10 0 001 2 14 14 0 001 2l1 2a58 58 0 005 8zM435 232l-28-4v-2 2c2 1 23 5 28 4zM385 229l-34 4-13-47 34-5 13 48z" fill="#263238"/><path fill="#37474f" d="M384 229l-35 5-13-48 35-4 13 47z"/><path d="M355 206a4 4 0 004 3 3 3 0 003-4 4 4 0 00-4-3 3 3 0 00-3 4z" fill="#fff"/><path d="M337 196c-2 4-6 9-6 12a4 4 0 003 4s-3 2-3 5l3 2a4 4 0 00-2 4c0 2 3 3 3 3s-2 2 0 4c2 4 19 2 21-4 1-3-3-3-3-3s6-2 6-6-6-2-6-2 6-3 5-6c-1-4-6-2-6-2s4-3 2-6c-1-5-8 2-12 2l-3-7z" fill="#d3766a"/><path d="M334 202c1-4-4-8-4-12 1-5 7-1 9 6l1 6z" fill="#d3766a"/><path d="M335 226a31 31 0 0018-3 63 63 0 01-18 3zM334 219a29 29 0 0019-4s0-1 0 0c-4 2-14 4-19 4zM352 206a40 40 0 01-18 6c3 1 7 0 10-1a18 18 0 008-4v-1zM396 168c0 3 0 10 5 9a10 10 0 004-3 26 26 0 004-4 38 38 0 003-6l-2 6a23 23 0 01-4 5 10 10 0 01-5 2 4 4 0 01-4-2 16 16 0 01-1-7z" fill="#263238"/><path d="M400 174c4 0 9-7 10-11l-2-7-2-6-13 6a36 36 0 013 8 5 5 0 010 1c0 2 1 9 4 9z" fill="#d3766a"/><path d="M396 165a9 9 0 002 0c8-2 7-12 7-15l-3 2-9 4a35 35 0 013 8 4 4 0 010 1z" fill="#263238"/><path d="M405 134c2 5 3 19 0 23-4 6-12 8-17 3-5-6-5-24-2-28 5-5 15-4 19 2z" fill="#d3766a"/><path d="M393 146l1 3-1-3zM394 145c2 0 2 3 0 3s-1-3 0-3zM388 146l-1 3 1-3zM387 145c-2 0-2 3 0 4s1-4 0-4zM395 144l-1-1a2 2 0 01-1 0 1 1 0 010-1 2 2 0 012 0 2 2 0 011 1 1 1 0 01-1 1zM386 145l1-1a2 2 0 001 0 1 1 0 000-1 2 2 0 00-2 0 2 2 0 00-1 1 1 1 0 001 1zM395 155h-1a3 3 0 01-1 0 1 1 0 002 1 1 1 0 000-1z" fill="#263238"/><path d="M394 152a3 3 0 01-2 2 4 4 0 01-1 0 58 58 0 01-1 0v-1-2l-2 1a50 50 0 011-10v9a6 6 0 011 0v2a5 5 0 004-1zM408 147s2-10 0-14c-1-2-4-2-4-2a5 5 0 00-4-5c-3-1-9 1-9 1s-5-4-10 0 1 9 1 9-1 4 5 4c5 1 14-5 14-5a36 36 0 004 10 3 3 0 003 2z" fill="#263238"/><path d="M391 128a10 10 0 013-2 11 11 0 014-1 6 6 0 015 3 4 4 0 010 3c1-2 0-4-2-5a9 9 0 00-7 0 17 17 0 00-3 2zM378 131a5 5 0 012-4 8 8 0 015-1 11 11 0 016 1 9 9 0 00-10 0 5 5 0 00-2 4 5 5 0 001 4 9 9 0 005 2 10 10 0 01-5-2 5 5 0 01-2-4zM385 141a17 17 0 008-1 36 36 0 007-4 83 83 0 003-2 39 39 0 01-6 5 19 19 0 01-7 2 17 17 0 01-5 0z" fill="#263238"/><path d="M404 146s3-5 5-4 1 8-1 9a3 3 0 01-4-1z" fill="#d3766a"/><path d="M408 144a6 6 0 00-2 5 1 1 0 012-1 2 2 0 00-2 1 8 8 0 000 1c-1-2 0-5 2-6z" fill="#263238"/><path d="M396 165l5 7 8-12 4 3-8 17-4-6-4 6-2-13z" fill="#fff"/><path d="M396 174l-1-6c0-1 0-1 0 0l2 11 4-5 4 6 7-16-7 17a80 80 0 01-4-7l-4 6a65 65 0 01-1-6z" fill="#263238"/></g><g><path d="M458 113a22 22 0 01-37 13l-11 2 6-10a22 22 0 1142-5z" fill="#fff"/><path d="M458 113a22 22 0 01-5 11 23 23 0 01-2 2 25 25 0 01-2 2 22 22 0 01-11 4 20 20 0 01-3 0 19 19 0 01-3 0 22 22 0 01-11-5l-10 1h-1l6-10v1a22 22 0 011-20 22 22 0 017-7 22 22 0 0134 21zm0 0a21 21 0 00-25-24 21 21 0 00-9 4 23 23 0 00-7 7 22 22 0 00-2 9 22 22 0 001 9v1l-5 9-1-1 11-1h1a21 21 0 0010 5 19 19 0 003 1 21 21 0 009-2 20 20 0 005-2 20 20 0 004-4 22 22 0 005-11z" fill="#263238"/><path fill="#fde68a" d="M433 123l-9-10 3-3 6 6 11-18 4 2-15 23z"/></g></svg>