<svg xmlns="http://www.w3.org/2000/svg" viewBox="0 0 500 500"><defs><clipPath id="a"><path d="M86 404v23a5 5 0 003 4l36 19a5 5 0 004 0l54-21a5 5 0 002-4v-27l-61 18z" fill="#d1fae5" stroke="#263238" stroke-linecap="round" stroke-linejoin="round" stroke-width="1.2"/></clipPath><clipPath id="b"><path d="M142 366l-58 19a2 2 0 00-2 2v17a2 2 0 001 2l41 19a2 2 0 002 0l61-23a2 2 0 001-2l1-15a2 2 0 00-2-3l-44-16a2 2 0 00-1 0z" fill="#fff" stroke="#263238" stroke-linecap="round" stroke-linejoin="round" stroke-width="1.2"/></clipPath><clipPath id="c"><path d="M97 290s-2 14 0 21a29 29 0 004 10s-8 13-6 23 6 12 6 12-4 19 3 25 21 15 38 11 27-3 30-9 2-31 2-31l-2-45c-1-17-3-30-11-37s-43 4-54 11-10 9-10 9z" fill="#d1fae5" stroke="#263238" stroke-linecap="round" stroke-linejoin="round" stroke-width="1.2"/></clipPath><clipPath id="d"><path d="M167 274s-6-10-15-15-31-10-40-11-19-1-21 9-3 27 0 34 14 12 22 7 33-25 42-26 12 6 12 2z" fill="#757575" stroke="#263238" stroke-linecap="round" stroke-linejoin="round" stroke-width="1.2"/></clipPath><clipPath id="e"><path d="M153 274c8-3 17-1 20 8s7 37 7 37 8 1 12 5 5 13 4 18-13 13-26 13-23-6-28-23-3-43-3-43 2-8 5-9" fill="#d1fae5" stroke="#263238" stroke-linecap="round" stroke-linejoin="round" stroke-width="1.2"/></clipPath></defs><path d="M44 258s3 73 64 122 145 52 213 56 121-34 129-92-44-76-73-142-25-89-85-130-154-15-203 55-45 131-45 131z" fill="#d1fae5"/><path d="M44 258s3 73 64 122 145 52 213 56 121-34 129-92-44-76-73-142-25-89-85-130-154-15-203 55-45 131-45 131z" fill="#fff" opacity=".7"/><g stroke-linecap="round" stroke-linejoin="round" stroke-width="1.2"><ellipse cx="341.5" cy="385.8" rx="72.2" ry="21.4" fill="#263238" stroke="#263238"/><path d="M341 374c35 0 63 7 71 17a8 8 0 002-5c0-12-33-22-73-22s-72 10-72 22a8 8 0 002 5c8-10 36-17 70-17z" fill="#fff" stroke="#263238"/><path d="M332 405c-24-2-43-6-43-12a3 3 0 011-2M388 387c4 1 6 3 6 6 0 6-23 12-52 12h-2M296 386c9-3 26-6 46-6a184 184 0 0133 3M331 397c-6-1-10-3-10-4 0-3 9-5 21-5s21 2 21 5c0 2-7 4-16 4" fill="none" stroke="#fff"/></g><g fill="none" stroke="#263238" stroke-linecap="round" stroke-linejoin="round" stroke-width="1.2"><path d="M52 300c31-9 97-27 134-28 49-2 132 34 184 40s86 4 86 4M34 305l7-2M442 249a228 228 0 00-55-5c-38 1-80 6-131 13s-125-30-175-17-46 18-46 18M457 253l-6-2"/></g><g fill="none" stroke="#263238" stroke-linecap="round" stroke-linejoin="round" stroke-width="1.2"><path d="M364 158a10 10 0 00-20 0zM466 158a13 13 0 00-11-9 30 30 0 00-30-36 30 30 0 00-29 25 19 19 0 00-31 15 19 19 0 001 5zM186 182a5 5 0 00-11 0z"/><path d="M237 182a7 7 0 00-5-5 15 15 0 10-30-5 10 10 0 00-16 8 10 10 0 000 2zM232 199a3 3 0 00-7 0z"/><path d="M264 199a4 4 0 00-3-4 9 9 0 000-1 10 10 0 00-19-2 6 6 0 00-10 5 6 6 0 000 2z"/></g><path d="M163 314a2 2 0 01-1 0 2 2 0 01-1-3c0-1 124-136 181-185a1 1 0 011 0 1 1 0 010 1c-56 49-178 185-179 186a2 2 0 01-1 1z" fill="#263238"/><path d="M169 287s7-7 10-7 11 7 11 10-7 0-7 0-6 8-11 7-3-10-3-10z" fill="#d1fae5" stroke="#263238" stroke-linecap="round" stroke-linejoin="round" stroke-width="1.2"/><path d="M183 290l4 5c0 2-4 7-9 8s-8-2-6-4 7-9 11-9z" fill="#d1fae5" stroke="#263238" stroke-linecap="round" stroke-linejoin="round" stroke-width="1.2"/><path d="M337 267V131l-3 11" fill="none" stroke="#263238" stroke-linecap="round" stroke-linejoin="round" stroke-width="1.2"/><path fill="#d1fae5" stroke="#263238" stroke-linecap="round" stroke-linejoin="round" stroke-width="1.2" d="M290 274h103v83H290z"/><path d="M338 273v-4a1 1 0 00-2 0v4zM348 262a1 1 0 00-1-1 1 1 0 00-1 2v12a4 4 0 01-4 4 4 4 0 01-1 0 2 2 0 000 2 6 6 0 001 0 6 6 0 006-6v-6h3z" fill="#263238"/><path d="M337 130s2-8 0-7 0 7 0 7zM337 130s-8-3-7 0 7 0 7 0z" fill="none" stroke="#263238" stroke-linecap="round" stroke-linejoin="round" stroke-width="1.2"/><path d="M165 196s-10-6-30-3-23 19-20 35 22 31 25 30-1-39 5-46 27-6 28-11-8-5-8-5z" fill="#263238" stroke="#263238" stroke-linecap="round" stroke-linejoin="round" stroke-width="1.2"/><path d="M130 205l2 14s-12 33-10 38 21 6 21 6 30 4 39 0 4-14 3-17l-6-27 2-9-2-13c-1-2-25-5-35-3s-15 4-14 11z" fill="#757575" stroke="#263238" stroke-linecap="round" stroke-linejoin="round" stroke-width="1.2"/><path d="M136 221s-1 29 1 34 8 13 22 11 16-15 16-15l-1-31z" fill="#fff" stroke="#263238" stroke-linecap="round" stroke-linejoin="round" stroke-width="1.2"/><path d="M160 242a3 3 0 11-3-3 3 3 0 013 3z" fill="none" stroke="#263238" stroke-miterlimit="10" stroke-width="1.2"/><path d="M159 252a2 2 0 11-1-2 2 2 0 011 2zM149 231c1 1 2 2 1 3s-2 0-3-1l-1-3 3 1zM163 231c-1 1-2 2-1 3s2 0 3-1l1-3-3 1z" fill="#263238"/><path d="M142 227a6 6 0 017-3M162 225s5-2 7 2" fill="none" stroke="#263238" stroke-linecap="round" stroke-linejoin="round" stroke-width="1.2"/><path d="M178 412l9-5a8 8 0 010 0c3-1 10-1 17-5s4-9-1-11l-11-3-2-20-20 7c-5 2-2 32-2 35s1 4 10 2z" fill="#263238" stroke="#263238" stroke-linecap="round" stroke-linejoin="round" stroke-width="1.2"/><path d="M196 402c-9 2-9 4-19 5a38 38 0 01-9 1v2c1 2 1 4 10 2l9-5a8 8 0 010 0c3-1 10-1 17-5l4-4a52 52 0 01-12 4z" fill="#fff" stroke="#263238" stroke-linecap="round" stroke-linejoin="round" stroke-width="1.2"/><path d="M199 391l-1 29c-1 5 1 11 8 11s23-5 28-6 14-3 18-12-19-7-19-7l2-17s-23 4-36 2z" fill="#263238" stroke="#263238" stroke-linecap="round" stroke-linejoin="round" stroke-width="1.2"/><path d="M252 413a4 4 0 000-2 21 21 0 01-9 7c-8 3-23 7-34 8-5 1-9 0-11-1 1 3 3 6 8 6 8 0 23-5 28-6s14-3 18-12z" fill="#fff" stroke="#263238" stroke-linecap="round" stroke-linejoin="round" stroke-width="1.2"/><path d="M233 406s2 6-3 9" fill="none" stroke="#fff" stroke-linecap="round" stroke-linejoin="round" stroke-width="1.2"/><path d="M197 379v12c2 8 3 6 19 6s22-7 24-11 0-13-1-16-6-4-8-4-33 9-34 13z" fill="#757575" stroke="#263238" stroke-linecap="round" stroke-linejoin="round" stroke-width="1.2"/><path d="M86 404v23a5 5 0 003 4l36 19a5 5 0 004 0l54-21a5 5 0 002-4v-27l-61 18z" fill="#d1fae5"/><g clip-path="url(#a)"><path d="M127 415l-3 1-38-12v23a5 5 0 003 4l36 19a5 5 0 002 0z" opacity=".2"/></g><path d="M86 404v23a5 5 0 003 4l36 19a5 5 0 004 0l54-21a5 5 0 002-4v-27l-61 18z" fill="none" stroke="#263238" stroke-linecap="round" stroke-linejoin="round" stroke-width="1.2"/><path d="M142 366l-58 19a2 2 0 00-2 2v17a2 2 0 001 2l41 19a2 2 0 002 0l61-23a2 2 0 001-2l1-15a2 2 0 00-2-3l-44-16a2 2 0 00-1 0z" fill="#fff"/><g clip-path="url(#b)"><path d="M124 425a2 2 0 002 0l61-23a2 2 0 001-2l1-15a2 2 0 00-1-2l-63 24z" fill="#d1fae5"/><path d="M124 425a2 2 0 002 0l61-23a2 2 0 001-2l1-15a2 2 0 00-1-2l-63 24z" fill="#fff" opacity=".5"/><path d="M82 387v17a2 2 0 001 2l41 19a2 2 0 001 0v-18l-43-20z" fill="#d1fae5"/></g><path d="M142 366l-58 19a2 2 0 00-2 2v17a2 2 0 001 2l41 19a2 2 0 002 0l61-23a2 2 0 001-2l1-15a2 2 0 00-2-3l-44-16a2 2 0 00-1 0z" fill="none" stroke="#263238" stroke-linecap="round" stroke-linejoin="round" stroke-width="1.2"/><path d="M222 336s8 3 12 11 1 21-1 25-18 7-24 7l-6-1-28 5c-11 2-8-23-5-34s23-17 30-17 22 4 22 4z" fill="#263238" stroke="#263238" stroke-linecap="round" stroke-linejoin="round" stroke-width="1.2"/><path d="M203 378s14-5 20-18M217 371a38 38 0 0012-9" fill="none" stroke="#fff" stroke-linecap="round" stroke-linejoin="round" stroke-width="1.2"/><path d="M183 347s4 21 2 29-14 10-17 9-1-21-1-32 10-9 16-6z" fill="#757575" stroke="#263238" stroke-linecap="round" stroke-linejoin="round" stroke-width="1.2"/><path d="M97 290s-2 14 0 21a29 29 0 004 10s-8 13-6 23 6 12 6 12-4 19 3 25 21 15 38 11 27-3 30-9 2-31 2-31l-2-45c-1-17-3-30-11-37s-43 4-54 11-10 9-10 9z" fill="#d1fae5"/><g clip-path="url(#c)"><path d="M100 290s-3 14-1 21a28 28 0 005 10s-9 13-7 23 6 12 6 12-4 19 3 25 22 15 38 11 27-3 31-9 1-31 1-31l-1-45c-1-17-3-30-11-37s-44 4-55 11-9 9-9 9z" opacity=".3"/></g><path d="M97 290s-2 14 0 21a29 29 0 004 10s-8 13-6 23 6 12 6 12-4 19 3 25 21 15 38 11 27-3 30-9 2-31 2-31l-2-45c-1-17-3-30-11-37s-43 4-54 11-10 9-10 9zM101 321a41 41 0 0036 5M101 356s17 16 45 0" fill="none" stroke="#263238" stroke-linecap="round" stroke-linejoin="round" stroke-width="1.2"/><path d="M167 274s-6-10-15-15-31-10-40-11-19-1-21 9-3 27 0 34 14 12 22 7 33-25 42-26 12 6 12 2z" fill="#757575"/><g clip-path="url(#d)"><path d="M149 272c5-2-8 2-9 0s9-7 11-8-12 2-12 0 14-3 5-5l-46-10a5 5 0 01-1 0 12 12 0 00-6 8c-3 10-3 27 0 34 2 6 11 11 19 8 4-3 7-7 13-10 11-8 21-15 26-17z" opacity=".3"/></g><path d="M167 274s-6-10-15-15-31-10-40-11-19-1-21 9-3 27 0 34 14 12 22 7 33-25 42-26 12 6 12 2z" fill="none" stroke="#263238" stroke-linecap="round" stroke-linejoin="round" stroke-width="1.2"/><path d="M204 319l12 3c5 2 9 15 7 17s-6-1-6-1a49 49 0 01-10 3c-4 0-8-19-3-22z" fill="#d1fae5" stroke="#263238" stroke-linecap="round" stroke-linejoin="round" stroke-width="1.2"/><path d="M178 318l9-3c8-3 13-3 18 4s7 16 4 22-13 9-18 9-6-7-6-7-1-11-4-15-4-9-3-10z" fill="#757575" stroke="#263238" stroke-linecap="round" stroke-linejoin="round" stroke-width="1.2"/><path d="M153 274c8-3 17-1 20 8s7 37 7 37 8 1 12 5 5 13 4 18-13 13-26 13-23-6-28-23-3-43-3-43 2-8 5-9" fill="#d1fae5"/><g clip-path="url(#e)"><path d="M196 342c1-5-1-15-4-18l-1-1a85 85 0 011 9c0 20-27 17-33 3-3-8-3-42-12-44-6-2-7 2-8 6 0 10 0 24 3 35 5 17 15 24 28 23s25-9 26-13z" opacity=".3"/></g><path d="M153 274c8-3 17-1 20 8s7 37 7 37 8 1 12 5 5 13 4 18-13 13-26 13-23-6-28-23-3-43-3-43 2-8 5-9M180 319s2 12-11 19" fill="none" stroke="#263238" stroke-linecap="round" stroke-linejoin="round" stroke-width="1.2"/><g fill="#263238"><path d="M113 106c0-3 1-5 4-5s4 2 4 5v10c1 3-1 5-4 5s-4-2-4-5zm1 10c0 2 1 4 3 4s3-2 3-4v-10c0-2-1-3-3-3s-3 1-3 3zM123 106c0-3 2-5 5-5s4 2 4 5v10c0 3-1 5-4 5s-5-2-5-5zm2 10c0 2 1 4 3 4s3-2 3-4v-10c0-2-1-3-3-3s-3 1-3 3zM138 102c3 0 4 1 4 4v2c0 3-1 5-4 5h-3v8h-1v-19zm0 10c2 0 3-1 3-4v-2c0-2-1-3-3-3h-3v9zM152 106v1h-1v-1c0-2-1-3-3-3s-3 1-3 3c0 5 7 5 7 10 0 3-1 5-4 5s-4-2-4-5v-1h1v1c0 2 1 4 3 4s3-2 3-4c0-4-7-5-7-10 0-3 1-5 4-5s4 2 4 5zM155 118v3h-1v-3zM158 118v3h-1v-3zM162 118v3h-1v-3zM117 129c3 0 4 2 4 5v2c0 3-1 5-4 5h-3v7h-1v-19zm0 10c2 0 3-1 3-3v-2c0-2-1-3-3-3h-3v8zM125 144l-1 4h-2l5-19h1l5 19h-2l-1-4zm0-1h5l-2-12zM143 134v1h-1v-1c0-2-1-4-3-4s-3 2-3 4v10c0 2 1 3 3 3s3-1 3-3v-4h-3v-1h4v5c0 3-1 5-4 5s-5-2-5-5v-10c0-3 2-5 5-5s4 2 4 5zM151 138v1h-5v8h6v1h-7v-19h7v2h-6v7zM160 148h-1v-19h1l6 16v-16h1v19h-1l-6-17zM169 134c0-3 2-5 4-5s5 2 5 5v10c0 3-2 5-5 5s-4-2-4-5zm2 10c0 2 0 3 2 3s3-1 3-3v-10c0-2 0-4-3-4s-2 2-2 4zM183 148v-17h-4v-2h9v2h-4v17zM200 139v1h-5v8h-1v-19h7v2h-6v8zM203 134c0-3 1-5 4-5s4 2 4 5v10c0 3-1 5-4 5s-4-2-4-5zm1 10c0 2 1 3 3 3s3-1 3-3v-10c0-2-1-4-3-4s-3 2-3 4zM215 144c0 2 0 3 3 3s2-1 2-3v-15h2v15c0 3-2 5-5 5s-4-2-4-5v-15h2zM225 148h-1v-19h1l6 16v-16h1v19h-1l-6-17zM239 129c3 0 4 2 4 5v10c0 3-1 4-4 4h-5v-19zm0 18c2 0 3-1 3-3v-10c0-2-1-3-3-3h-3v16zM302 325l14-32h8v32h3v7h-3v9h-8v-9h-14zm14 0v-18l-7 18zM330 304c0-7 4-12 11-12s12 5 12 12v25c0 8-4 12-12 12s-11-4-11-12zm8 26c0 3 1 4 3 4s4-1 4-4v-26c0-3-1-5-4-5s-3 2-3 5zM356 325l13-32h9v32h3v7h-3v9h-8v-9h-14zm14 0v-18l-7 18z"/></g></svg>