<svg xmlns="http://www.w3.org/2000/svg" viewBox="0 0 500 500"><path d="M215 118c-9-9-18-19-31-23-28-9-62-4-84 16-31 28-39 73-34 111 6 42 23 83 53 114 32 35 77 57 124 68 26 6 53 9 80 5s52-15 70-34c26-26 33-64 31-99-2-24-9-49-26-67-32-34-84-36-126-54-17-8-33-17-47-28a120 120 0 01-10-9z" fill="#fde68a"/><path d="M215 118c-9-9-18-19-31-23-28-9-62-4-84 16-31 28-39 73-34 111 6 42 23 83 53 114 32 35 77 57 124 68 26 6 53 9 80 5s52-15 70-34c26-26 33-64 31-99-2-24-9-49-26-67-32-34-84-36-126-54-17-8-33-17-47-28a120 120 0 01-10-9z" fill="#fff" opacity=".7"/><path d="M391 172l2-6-1-13-1-2a9 9 0 00-3-2 59 59 0 00-6-3c-3-2-5-2-6-1a12 12 0 00-1 2 10 10 0 000 2l-4 2-1 1 2 10 6 7v1a21 21 0 01-4 9 29 29 0 00-3 2v1c-5 4-6 7-7 9a93 93 0 00-9-8l-13-11-3-6-1-2-6-15c-3-7-12-12-20-13l4-9-4-1 5 1c14 6 18 2 18 2a3 3 0 001-3l-1-17a2 2 0 011-2l3-3a2 2 0 000-2l-4-6a2 2 0 01-1-1l1-4a1 1 0 000-1l-6-11a8 8 0 003-2c3-5 3-8 1-9s-7 6-17 3c-5-1-16 10-20 18l4-10c-4 5-6 7-6 10-4 3-4 6-4 6-1 3 0 9 6 16l-10 14a7 7 0 00-3-1c-4-1-10 1-12 2l-3-1a28 28 0 00-9-2 31 31 0 00-10 1 34 34 0 00-5 2 26 26 0 00-5 2 34 34 0 00-4 3 56 56 0 00-11 10l-3 4-4 4a165 165 0 01-17 15 82 82 0 01-18 8l-14 4-15 3a117 117 0 00-17 4 60 60 0 00-9 3l-3 1h2a31 31 0 019 6 24 24 0 016 14l-3 14c-1 5-3 9 0 13a11 11 0 002 3 20 20 0 004 4l8 7a60 60 0 015 9 38 38 0 002 6l2 3a11 11 0 001 2 33 33 0 0012 11 32 32 0 0015 5 53 53 0 00-1 5 60 60 0 00-10 4l-19 11a49 49 0 00-10 12 74 74 0 00-7 17l-2 7h-1l-2 8c-3 8-9 15-11 19l-5 5-10 12a29 29 0 00-3 3 16 16 0 00-1 3c-3 5 3 9 6 14a24 24 0 013 8 28 28 0 000 7 12 12 0 003 5 22 22 0 007 5 28 28 0 003 2c4 2 17 2 19-3a10 10 0 001-1 4 4 0 000-2 6 6 0 00-2-5h1c-5-6-16-14-16-20 0-13 8-22 16-30 9-8 19-9 27-18 5-5 11-11 14-22 21-6 26-23 26-23l6-3c5 9 9 14 10 14l45-31c1 2 10 12 19 15l9 5c-1 5-9 7-9 7-2 0-11 0-19 9-4 3-9 10-12 15l-5 7a31 31 0 00-4 1c-9 3-9 7-9 9a6 6 0 000 1 6 6 0 002 3 18 18 0 003 3 20 20 0 014 5 54 54 0 012 8c2 5 8 18 17 18a20 20 0 007 0l3-2a2 2 0 000-1 3 3 0 00-1-1 58 58 0 00-4-6 53 53 0 01-5-16v-1l-1-4v-1a16 16 0 012-7c2-3 5-5 8-5l8-3a75 75 0 0011-3c12-5 24-10 26-16 4-9 11-19 11-19-4-23-21-48-21-48l47-32-4-9v1l12 3h1a10 10 0 002 0c3-3 7-9 9-15a77 77 0 005-21 48 48 0 001-11v-4zm-96-59l1-2 2-3v-1 1a25 25 0 01-3 5z" fill="#fff"/><path d="M369 184s4 12 20 9c0 0 3-8 1-20l3-7-1-11c0-2 0-4-4-6s-10-7-12-4l-1 4-4 3 1 10 6 7s-1 6-4 9a26 26 0 00-5 6z" fill="#fde68a"/><path d="M385 194s4-17 1-26c0 0 6-5 4-17 0 0 2-1 2 2l1 13-3 6-1 20-4 2z" opacity=".2"/><path d="M311 139l50 74s3 3 11 4c0 0 11-12 13-23l4-1s-5 23-13 30c0 0-10 0-15-3l-51-80z" fill="#fde68a"/><path d="M311 139l50 74s3 3 11 4c0 0 11-12 13-23l4-1s-5 23-13 30c0 0-10 0-15-3l-51-80z" fill="#fff" opacity=".6"/><path d="M312 136a25 25 0 0120 13l5 15c4 8 11 14 17 19 5 3 9 7 12 11a21 21 0 014 7" fill="none" stroke="#263238" stroke-linecap="round" stroke-linejoin="round"/><path d="M364 191c0-2 2-5 6-9 8-6 8-13 8-13l-6-7-2-10 5-2s0-4 2-5 12 5 14 6 1 7 2 15l-3 6c3 31-14 51-14 51a48 48 0 01-15-3" fill="none" stroke="#263238" stroke-linecap="round" stroke-linejoin="round"/><path d="M376 153l3 3a9 9 0 001 1 5 5 0 003 1 6 6 0 002 0l3-4M369 183s3 14 20 10" fill="none" stroke="#263238" stroke-linecap="round" stroke-linejoin="round"/><path d="M382 146a6 6 0 00-4 4 7 7 0 000 5M387 148a8 8 0 00-5 5 8 8 0 00-1 5" fill="none" stroke="#263238" stroke-linecap="round" stroke-linejoin="round"/><path d="M381 157a13 13 0 013 3c2 2 2 5 2 7M375 150s3-2 3-1" fill="none" stroke="#263238" stroke-linecap="round" stroke-linejoin="round"/><path d="M162 361s-19-5-22-21a91 91 0 01-11 23c-8 10-22 23-23 27s1 7 5 10 4 14 5 16a17 17 0 007 12c5 4 14 5 21 3s6-8 4-11-16-14-16-18 1-13 5-20 15-17 25-21z" fill="#fde68a"/><path d="M316 127s-4 7-6 13" fill="none" stroke="#263238" stroke-linecap="round" stroke-linejoin="round"/><path d="M320 82c1 4 2 9 1 13l-4 7-1 9c1 4 1 8 3 11 4 4 10 5 16 7 0 0-4 4-18-2l-5-2-3 13s-2-3-4-3-9 6-9 6l-5-7c-1-3-3-8-5-9l12-17s-6-8 1-12 11 5 11 5l-3-10 10-8z" fill="#fde68a"/><path d="M320 82c1 4 2 9 1 13l-4 7-1 9c1 4 1 8 3 11 4 4 10 5 16 7 0 0-4 4-18-2l-5-2-3 13s-2-3-4-3-9 6-9 6l-5-7c-1-3-3-8-5-9l12-17s-6-8 1-12 11 5 11 5l-3-10 10-8z" fill="#fff" opacity=".6"/><path d="M329 79l5 11a2 2 0 011 1l-1 4a2 2 0 000 1l5 6a2 2 0 01-1 2l-3 4a2 2 0 000 1l1 17a3 3 0 01-2 3 14 14 0 01-4 1c-6 0-15-3-18-4a2 2 0 01-1-1l-4-10M306 102s-3-7-5-6-6 3-6 6 5 8 7 8a9 9 0 004 0" fill="none" stroke="#263238" stroke-linecap="round" stroke-linejoin="round"/><path d="M330 97l-1 1-1-1 1-2 1 2z" fill="#263238"/><path d="M327 109a5 5 0 003 4" fill="none" stroke="#263238" stroke-linecap="round" stroke-linejoin="round"/><path d="M330 90s-4-4-7 4" fill="none" stroke="#263238" stroke-linecap="round" stroke-linejoin="round" stroke-width="2"/><path d="M297 108h1s-6 11-12 17M299 109s-2 19 1 28M295 90s-4-8 2-15M296 89c-7-1-10 9-10 9" fill="none" stroke="#263238" stroke-linecap="round" stroke-linejoin="round"/><path d="M332 68c-2-1-6 6-16 3-7-1-23 3-22 18 0 0-12 7 2 22l2-4s-6-6-1-9c4-3 5-3 9 4 0 0 2 3 4 2s3-2 2-5l-2-4c3-1 9-4 8-12 6-1 12-3 14-6 3-5 3-8 0-9z" fill="#263238"/><path d="M297 88c-1-4 3-9 7-11s8-2 13-2a39 39 0 008-1 14 14 0 003-1" fill="none" stroke="#fff" stroke-linecap="round" stroke-linejoin="round" stroke-width=".5"/><path d="M299 91a9 9 0 017-7l6-1c2-1 3-1 3-3" fill="none" stroke="#fff" stroke-linecap="round" stroke-linejoin="round" stroke-width=".5"/><path d="M254 170l48-34a5 5 0 017 2s58 88 56 90l-134 90c-2 1-56-86-56-86a5 5 0 011-7l26-18" fill="none" stroke="#263238" stroke-linecap="round" stroke-linejoin="round"/><path d="M289 278c2 6 8 10 13 14s10 7 14 12 4 13 0 17a4 4 0 01-4 2c-3-1-2-5-4-7-4 5-11 7-15 7l2-9s5-1 9-6c0 0 0-3-9-6s-19-15-19-15z" fill="#fde68a"/><path d="M289 278c2 6 8 10 13 14s10 7 14 12 4 13 0 17a4 4 0 01-4 2c-3-1-2-5-4-7-4 5-11 7-15 7l2-9s5-1 9-6c0 0 0-3-9-6s-19-15-19-15z" fill="#fff" opacity=".6"/><path d="M304 341s-15-7-9-27c0 0-11-1-19 9l-18 22s-12 4-12 9 4 7 6 9 4 6 5 12 8 18 17 18 10-3 10-3l-5-7c-3-4-6-14-6-22s3-11 9-13 15-3 22-7z" fill="#fde68a"/><path d="M277 288c-2-2 9 11 20 15s11 9 11 9" fill="none" stroke="#263238" stroke-linecap="round" stroke-linejoin="round"/><path d="M318 260s17 25 21 48c0 0-7 10-11 19s-33 18-45 21c-4 1-7 3-9 6-2 4-1 9 0 12a43 43 0 003 13l6 10c2 3-2 4-4 4-14 2-21-13-23-22s-9-11-10-15c-2-8 13-11 13-11-1 0 10-16 17-23 2-2 5-5 9-6l11-2c4-1 8-4 9-7M295 314s-7 18 10 28M281 284a48 48 0 0020 15" fill="none" stroke="#263238" stroke-linecap="round" stroke-linejoin="round"/><path d="M297 317a35 35 0 00-10 2 19 19 0 00-8 6" fill="none" stroke="#263238" stroke-linecap="round" stroke-linejoin="round"/><path d="M293 324a118 118 0 00-17 8 42 42 0 00-14 13 11 11 0 01-2 2l-5 2c-4 2-8 8-8 8s-6-7 11-12l16-20c6-7 9-10 20-11z" opacity=".2"/><path d="M294 142l1-1a56 56 0 01-4-8c-1-3-3-9-8-9l-13 2s-11-4-21-2c0 0-14 3-25 17s-21 24-42 31-49 10-57 15c0 0 15 5 16 17s-8 23-4 30 11 9 15 14 7 14 9 18 13 17 28 18c0 0 3-13 7-19l-21-33s-2-4 2-7l25-18s-4-7-4-12a14 14 0 00-5-8s3-7 8-12 16-14 21-21 15-25 34-28a30 30 0 0110 6c5 5 15 12 28 10z" fill="#fde68a"/><path d="M189 284s-13 0-23-12-8-17-13-23-14-9-16-15 3-20 4-25-3-19-16-22c0 0 16-6 29-8s34-7 43-13 24-20 27-24 13-15 22-17c6-1 10 1 10 1s-16 4-25 14c-7 9-8 16-17 24s-17 13-21 22c0 0 4 5 4 8s5 13 5 13l-25 18s-4 2-2 7l21 33s-7 14-7 19z" opacity=".2"/><path d="M271 126s11-4 14-2 10 17 10 17l-2 2s-14-2-20-5-12-12-24-13c0 0 7-3 22 1z" fill="#fff" opacity=".4"/><path d="M248 125c-13 4-17 10-25 17l-15 16c-22 21-56 18-84 29a20 20 0 0117 17c1 9-7 22-3 31 2 5 9 8 13 12 5 5 6 13 10 19 5 11 16 16 28 18" fill="none" stroke="#263238" stroke-linecap="round" stroke-linejoin="round"/><path d="M195 190l-4 5c-8 8-19 13-30 17M198 197c-6 7-14 10-22 15s-17 10-20 19M275 131c-10-12-30-6-30-6 8-1 14 0 25 10 9 7 19 7 23 7" fill="none" stroke="#263238" stroke-linecap="round" stroke-linejoin="round"/><path d="M270 126a93 93 0 0110-2 10 10 0 013 0 7 7 0 014 3 29 29 0 013 5 56 56 0 005 9" fill="none" stroke="#263238" stroke-linecap="round" stroke-linejoin="round"/><path d="M205 281s-11 10-15 26a9 9 0 01-2-9s-33 14-45 50l-3-8s4-25 20-37c16-11 28-14 28-14s2-17 8-23z" fill="#fde68a"/><path d="M205 281s-11 10-15 26a9 9 0 01-2-9s-33 14-45 50l-3-8s4-25 20-37c16-11 28-14 28-14s2-17 8-23z" fill="#fff" opacity=".6"/><path d="M221 304l-6 3s-5 17-26 23c-3 11-9 17-14 22-8 9-18 10-27 18s-16 17-16 30c-1 10 26 22 14 29s-30-2-30-12-2-14-7-19c-6-6-2-11 3-16 10-10 18-19 24-32 5-13 8-33 23-46 9-8 29-15 29-15s1-13 8-24M140 339c0-1 3 20 22 22M174 299a41 41 0 00-19 17M183 296a43 43 0 00-7 2M122 422a17 17 0 0017 7" fill="none" stroke="#263238" stroke-linecap="round" stroke-linejoin="round"/><path d="M143 347c-4 9-8 18-16 25l-9 8c-2 3-5 7-5 12a25 25 0 001 7l3 11a28 28 0 004 8 19 19 0 005 5 19 19 0 0011 3c4 0 9-3 11-6 0 0 3 3 0 8s-15 5-19 3-11-6-13-12 1-10-3-15-9-9-7-14 16-17 20-23 12-18 13-27z" opacity=".2"/><path fill="#fde68a" d="M288 212l74 11 2 5-75-14-1-2z"/><path fill="#fff" opacity=".6" d="M288 212l74 11 2 5-75-14-1-2z"/><path fill="#fde68a" d="M250 242l-23 70 4 6 20-74-1-2z"/><path fill="#fff" opacity=".6" d="M250 242l-23 70 4 6 20-74-1-2z"/><path fill="#fde68a" d="M306 136l-24 116-107-20v-2l104 17 27-111z"/><path fill="#fff" opacity=".6" d="M306 136l-24 116-107-20v-2l104 17 27-111z"/><circle cx="299.3" cy="169.4" r="15.1" transform="rotate(-24 299 169)" fill="#fde68a"/><path fill="none" stroke="#263238" stroke-linecap="round" stroke-linejoin="round" d="M302 154l4-18M231 317l21-75M287 214l78 14M238 200l38-27M240 206l39-28M245 215c4 0 9-3 11-7s5-7 8-10a27 27 0 018-3 20 20 0 007-3c2-2 4-5 3-8M247 218c4 1 8-2 11-6s5-7 8-9a24 24 0 0110-5c5-1 9-4 9-8"/><circle cx="299.2" cy="169.2" r="15" fill="none" stroke="#263238" stroke-linecap="round" stroke-linejoin="round"/><path d="M254 170l48-34a5 5 0 017 2s58 88 56 90l-134 90c-2 1-56-86-56-86a5 5 0 011-7l26-18M280 243l14-59M174 230l78 12" fill="none" stroke="#263238" stroke-linecap="round" stroke-linejoin="round"/><path d="M224 225s12 2 18-14c0 0 7 10 13 14l7 1a62 62 0 0013 1s-1 5-4 5a12 12 0 01-6-1v1l20 15a3 3 0 01-1 4l-14-9-1 1 9 13-1 2-4-2-7-10-2 1s6 11 5 13-4-1-4-1l-4-10s2 8-1 9-2-2-3-9l-6-9s-19-9-27-15z" fill="#fde68a"/><path opacity=".2" d="M231 224l21 14 5 11-6-8-27-15 7-2z"/><path d="M263 130c-9 5-10 7-15 11-6 5-12 12-12 20a7 7 0 000 4c2 2 5 3 7 2l7-4-2 3a11 11 0 01-2 2 17 17 0 01-6 3c-6 1-12 1-17 3-6 1-10 4-14 8-3 4 2 12 3 16 3 10 11 19 19 26l-7 1s-18-10-22-18-6-17-9-21c0 0 3-6 14-16s18-21 23-27c6-8 20-16 26-17l7 4z" fill="#fde68a"/><path d="M263 130c-9 5-10 7-15 11-6 5-12 12-12 20a7 7 0 000 4c2 2 5 3 7 2l7-4-2 3a11 11 0 01-2 2 17 17 0 01-6 3c-6 2-12 1-17 3-6 1-10 4-14 8-3 4 2 12 3 16 3 10 11 19 19 26l-7 1s-18-10-22-18-6-17-9-21c0 0 3-6 14-16s18-21 23-27c6-8 21-16 26-17a46 46 0 017 4z" fill="#fff" opacity=".6"/><path d="M233 192c8-5 22-17 24-31M257 227a40 40 0 01-16-20c-5-12-9-19-21-23M205 205a34 34 0 0015 13M201 198a32 32 0 003 5M224 225s13 1 18-15M247 133a36 36 0 017-2M229 150a35 35 0 0116-15M220 182a13 13 0 019 6" fill="none" stroke="#263238" stroke-linecap="round" stroke-linejoin="round"/><path d="M255 226c3-2 6-1 8 0s11 2 12 1-1 4-3 5-7-1-7-1v1l20 16c1 2 0 3-1 3l-14-9-1 1s10 13 9 14-3 1-4 0l-8-11-2 1s6 12 5 13-2 1-3 0l-5-11v9a2 2 0 01-3 0l-1-9-6-9c-14-6-38-22-38-22-13-10-14-19-16-24a17 17 0 00-4-7c4-14 20-16 32-38s32-23 32-23" fill="none" stroke="#263238" stroke-linecap="round" stroke-linejoin="round"/><g><g fill="none" stroke="#263238" stroke-linecap="round" stroke-linejoin="round"><path d="M88 320l-22 18M147 271l-45 38M88 255l-9 7M130 220l-35 29M108 245l-21 18M220 333l-28 23M235 321l-11 9M231 331l-11 9M355 131l-7 6M382 108l-24 21"/></g></g><g><g fill="#fff"><path d="M335 247h97s-1-4-5-6-7 0-7-5-2-7-6-8c0 0-3-10-12-11s-16 0-17 6-3 8-6 8-7-3-9 2-2 8-6 7-10-5-15 3c0 0-9-3-14 4zM169 143H72s1-5 5-6 7 0 7-5 2-7 6-8c0 0 3-11 12-12s16 1 17 6 3 9 6 8 7-2 9 3 2 8 6 7 10-6 15 3c0 0 9-4 14 4z"/></g></g></svg>