<svg xmlns="http://www.w3.org/2000/svg" viewBox="0 0 500 500"><path d="M68 167s-28 72 11 145 120 110 185 143 131 17 163-37-12-92-12-168 12-97-30-161-143-79-220-31-97 109-97 109z" fill="#fff" opacity=".7"/><path d="M20 280a120 120 0 016-71c13-32 40-54 71-67 45-19 89-20 125-57l32-36c34-33 84-29 121-3 77 55 104 164 100 254-2 40-21 78-52 105-69 60-186 50-266 18-59-23-123-78-137-143z" fill="#fde68a"/><path d="M20 280a120 120 0 016-71c13-32 40-54 71-67 45-19 89-20 125-57l32-36c34-33 84-29 121-3 77 55 104 164 100 254-2 40-21 78-52 105-69 60-186 50-266 18-59-23-123-78-137-143z" fill="#fff" opacity=".7"/><path fill="none" stroke="#263238" stroke-linecap="round" stroke-linejoin="round" stroke-width="1.1" d="M251 107v7"/><path fill="none" stroke="#263238" stroke-linecap="round" stroke-linejoin="round" stroke-width="1.1" stroke-dasharray="7.165524482727051,7.165524482727051" d="M251 121v11"/><path fill="none" stroke="#263238" stroke-linecap="round" stroke-linejoin="round" stroke-width="1.1" d="M251 135v7M357 219h-7"/><path fill="none" stroke="#263238" stroke-linecap="round" stroke-linejoin="round" stroke-width="1.1" stroke-dasharray="7.165487289428711,7.165487289428711" d="M343 219h-11"/><path fill="none" stroke="#263238" stroke-linecap="round" stroke-linejoin="round" stroke-width="1.1" d="M329 219h-7M180 219h-7"/><path fill="none" stroke="#263238" stroke-linecap="round" stroke-linejoin="round" stroke-width="1.1" stroke-dasharray="7.165487289428711,7.165487289428711" d="M166 219h-11"/><path fill="none" stroke="#263238" stroke-linecap="round" stroke-linejoin="round" stroke-width="1.1" d="M152 219h-7"/><path d="M434 242a2 2 0 114 0v4a2 2 0 11-4 0zm1 4l1 1v-5-1l-1 1zM435 252a1 1 0 001-1h1v7h-1v-6h-1zM434 263a2 2 0 114 0v4a2 2 0 11-4 0zm1 4h1c1 0 0 0 0 0v-4-1l-1 1zM435 272a1 1 0 001 0h1v7h-1v-6h-1zM434 284a2 2 0 114 0v4a2 2 0 11-4 0zm1 4h1c1 0 0 0 0 0v-4-1l-1 1zM435 293a1 1 0 001 0h1v7h-1v-6h-1zM434 305a2 2 0 114 0v4a2 2 0 11-4 0zm1 4h1c1 0 0 0 0 0v-4-1l-1 1zM434 315a2 2 0 114 0v4a2 2 0 11-4 0zm1 4l1 1v-5-1l-1 1zM434 326a2 2 0 114 0v3a2 2 0 11-4 1zm1 4h1c1 0 0 0 0 0v-4-1l-1 1zM435 346a1 1 0 001-1h1v7h-1v-5h-1zM435 356a1 1 0 001-1h1v8h-1v-6h-1zM435 367a1 1 0 001-1h1v7h-1v-5h-1zM434 378a2 2 0 114 0v4a2 2 0 11-4 0zm1 4l1 1v-5-1l-1 1zM434 389a2 2 0 114 0v3a2 2 0 11-4 0zm1 3l1 1v-5h-1zM435 398a1 1 0 001-1h1v8h-1v-6h-1zM441 231a1 1 0 001-1h1v7h-1v-6h-1zM441 241a1 1 0 001-1h1v7h-1v-5h-1zM440 263a2 2 0 114 0v4a2 2 0 11-4 0zm1 4h2v-4l-1-1-1 1zM441 293a1 1 0 001 0h1v7h-1v-6h-1zM440 305a2 2 0 114 0v4a2 2 0 11-4 0zm1 4h2v-4l-1-1-1 1zM441 314a1 1 0 001-1h1v8h-1v-6h-1zM441 325a1 1 0 001-1h1v7h-1v-5h-1zM441 335a1 1 0 001-1h1v8h-1v-6h-1zM440 347a2 2 0 114 0v3a2 2 0 11-4 0zm1 4h2v-4l-1-1-1 1zM440 357a2 2 0 114 0v4a2 2 0 11-4 0zm1 4l1 1 1-1v-4l-1-1-1 1zM429 293a1 1 0 001 0h1v7h-2v-6zM428 305a2 2 0 113 0v4a2 2 0 11-3 0zm1 4h1c1 0 0 0 0 0v-4-1l-1 1z" fill="#263238"/><path d="M428 315a2 2 0 113 0v4a2 2 0 11-3 0zm1 4l1 1v-5-1l-1 1zM429 325a1 1 0 001-1h1v7h-2v-5zM429 346a1 1 0 001-1h1v7h-2v-5zM429 356a1 1 0 001-1h1v8h-2v-6zM429 367a1 1 0 001-1h1v7h-2v-5zM422 263a2 2 0 113 0v4a2 2 0 11-3 0zm1 4h1v-4l-1-1v1zM422 284a2 2 0 113 0v4a2 2 0 11-3 0zm1 4h1v-4l-1-1v1zM422 314a1 1 0 002-1v8h-1v-6h-1zM422 325a1 1 0 002-1v7h-1v-5h-1zM422 356a1 1 0 002-1v8h-1v-6h-1zM422 368a2 2 0 113 0v3a2 2 0 11-3 0zm1 3v1l1-1v-4h-1c-1 0 0 0 0 0zM422 377a1 1 0 002-1v8h-1v-6h-1zM164 274a2 2 0 113 0v4a2 2 0 11-3 0zm1 4v1l1-1v-4l-1-1v1zM164 285a2 2 0 113 0v3a2 2 0 11-3 0zm1 3v1l1-1v-4h-1c-1 0 0 0 0 0zM165 294a1 1 0 001-1h1v8h-2v-6zM164 305a2 2 0 113 0v4a2 2 0 11-3 0zm1 4v1l1-1v-4h-1c-1 0 0 0 0 0zM165 315a1 1 0 001-1h1v7h-2v-5zM164 326a2 2 0 113 0v4a2 2 0 11-3 0zm1 4v1l1-1v-4h-1c-1 0 0 0 0 0zM165 336a1 1 0 001-1h1v7h-2v-5zM164 347a2 2 0 113 0v4a2 2 0 11-3 0zm1 4v1l1-1v-4h-1c-1 0 0 0 0 0zM164 358a2 2 0 113 0v4a2 2 0 11-3 0zm1 4h1v-4l-1-1v1z" fill="#263238"/><path d="M164 368a2 2 0 113 0v4a2 2 0 11-3 0zm1 4v1l1-1v-4h-1c-1 0 0 0 0 0zM165 378a1 1 0 001-1h1v7h-2v-5zM165 388a1 1 0 001-1h1v8h-2v-6zM165 399a1 1 0 001-1h1v7h-2v-5zM165 409a1 1 0 001-1h1v8h-2v-6zM165 425h1v-4l-1-1v1zM171 315a1 1 0 001-1h1v7h-1v-5h-1zM171 326a1 1 0 001-1h1v7h-1v-6h-1zM170 347a2 2 0 113 0v4a2 2 0 11-3 0zm1 4l1 1v-5h-1zM171 357a1 1 0 001-1h1v7h-1v-5h-1zM170 368a2 2 0 113 0v4a2 2 0 11-3 0zm1 4l1 1v-5h-1zM171 393l1 1v-5-1l-1 1zM171 399a1 1 0 001-1h1v7h-1v-5h-1zM171 409a1 1 0 001-1h1v8h-1v-6h-1zM170 442a2 2 0 113 0v3a2 2 0 11-3 0zm1 3l1 1v-5h-1zM158 305a2 2 0 113 0v4a2 2 0 11-3 0zm1 4v1l1-1v-4h-1c-1 0 0 0 0 0zM158 315a1 1 0 002-1v7h-1v-5h-1zM158 326a1 1 0 002-1v7h-1v-6h-1zM158 337a2 2 0 113 0v4a2 2 0 11-3 0zm1 4h1v-4l-1-1v1zM158 358a2 2 0 113 0v4a2 2 0 11-3 0zm1 4h1v-4l-1-1v1z" fill="#263238"/><path d="M158 368a2 2 0 113 0v4a2 2 0 11-3 0zm1 4v1l1-1v-4h-1c-1 0 0 0 0 0zM158 378a1 1 0 002-1v7h-1v-5h-1zM158 389a2 2 0 113 0v4a2 2 0 11-3 0zm1 4v1l1-1v-4l-1-1v1zM158 399a1 1 0 002-1v7h-1v-5h-1zM151 285a2 2 0 114 0v3a2 2 0 11-4 0zm1 3l1 1 1-1v-4h-1-1zM152 305a1 1 0 001-1h1v7h-1v-6h-1zM152 326a1 1 0 001-1h1v7h-1v-6h-1zM151 337a2 2 0 114 0v4a2 2 0 11-4 0zm1 4h2v-4l-1-1-1 1zM152 367a1 1 0 001 0h1v7h-1v-6h-1zM152 378a1 1 0 001-1h1v7h-1v-5h-1zM152 388a1 1 0 001-1h1v8h-1v-6h-1zM347 33a2 2 0 114 0v3a2 2 0 11-4 0zm1 3l1 1v-5h-1zM347 43a2 2 0 114 0v4a2 2 0 11-4 0zm1 4l1 1v-5-1l-1 1zM348 74a1 1 0 001-1h1v7h-1v-6h-1zM348 84a1 1 0 001-1h1v8h-1v-6h-1zM347 116a2 2 0 114 0v4a2 2 0 11-4 0zm1 4l1 1v-5h-1zM347 137a2 2 0 114 0v4a2 2 0 11-4 0zm1 4l1 1v-5h-1zM328 54a2 2 0 114 0v3a2 2 0 11-4 0zm2 3v1l1-1v-4h-1c-1 0 0 0 0 0zM328 64a2 2 0 114 0v4a2 2 0 11-4 0zm2 4v1l1-1v-4l-1-1v1zM328 75a2 2 0 114 0v3a2 2 0 11-4 0zm2 3v1l1-1v-4h-1c-1 0 0 0 0 0zM329 84a1 1 0 002-1v8h-1v-6h-1zM329 105a1 1 0 002-1v7h-1v-5h-1zM329 116a1 1 0 002-1v7h-1v-6h-1zM328 137a2 2 0 114 0v4a2 2 0 11-4 0zm2 4v1l1-1v-4h-1c-1 0 0 0 0 0zM329 147a1 1 0 002-1v7h-1v-5h-1zM341 33a2 2 0 113 0v3a2 2 0 11-3 0zm1 3l1 1v-5h-1zM342 42a1 1 0 001-1h1v8h-1v-6h-1zM341 54a2 2 0 113 0v3a2 2 0 11-3 0zm1 3l1 1v-5h-1zM342 63a1 1 0 001-1h1v8h-1v-6h-1zM342 74a1 1 0 001-1h1v7h-1v-6h-1zM342 84a1 1 0 001-1h1v8h-1v-6h-1zM341 95a2 2 0 113 0v4a2 2 0 11-3 0zm1 4l1 1v-5h-1zM341 106a2 2 0 113 0v4a2 2 0 11-3 0zm1 4l1 1v-5-1l-1 1zM335 42a1 1 0 002-1v8h-1v-6h-1zM335 54a2 2 0 113 0v3a2 2 0 11-3 0zm1 3v1l1-1v-4h-1c-1 0 0 0 0 0zM335 64a2 2 0 113 0v4a2 2 0 11-3 0zm1 4v1l1-1v-4l-1-1v1zM335 74a1 1 0 002-1v7h-1v-6h-1zM335 95a1 1 0 002-1v7h-1v-6h-1zM335 105a1 1 0 002-1v7h-1v-5h-1zM335 116a1 1 0 002-1v7h-1v-6h-1zM54 149a2 2 0 114 0v3a2 2 0 11-4 0zm1 3l1 1v-5h-1zM54 159a2 2 0 114 0v4a2 2 0 11-4 0zm1 4l1 1v-5-1l-1 1zM55 169a1 1 0 001-1h1v7h-1v-5h-1zM54 180a2 2 0 114 0v4a2 2 0 11-4 0zm1 4l1 1v-5-1l-1 1zM55 190a1 1 0 001-1h1v7h-1v-6h-1zM54 201a2 2 0 114 0v4a2 2 0 11-4 0zm1 4l1 1v-5-1l-1 1zM55 211a1 1 0 001-1h1v7h-1v-6h-1zM54 222a2 2 0 114 0v4a2 2 0 11-4 0zm1 4h1c1 0 0 0 0 0v-4-1l-1 1zM54 232a2 2 0 114 0v4a2 2 0 11-4 0zm1 4l1 1v-5h-1zM54 243a2 2 0 114 0v4a2 2 0 11-4 0zm1 4h1c1 0 0 0 0 0v-4-1l-1 1zM55 263a1 1 0 001-1h1v7h-1v-5h-1zM61 190a1 1 0 001-1h1v7h-1v-6h-1zM61 200a1 1 0 001-1h1v8h-1v-6h-1zM60 211a2 2 0 114 0v4a2 2 0 11-4 0zm1 4l1 1 1-1v-4h-1-1zM60 222a2 2 0 114 0v4a2 2 0 11-4 0zm1 4h2v-4l-1-1-1 1zM61 232a1 1 0 001-1h1v7h-1v-6h-1zM61 252a1 1 0 001 0h1v7h-1v-6h-1zM48 180a2 2 0 113 0v4a2 2 0 11-3 0zm1 4l1 1v-5-1l-1 1zM49 190a1 1 0 001-1h1v7h-2v-6zM49 200a1 1 0 001-1h1v8h-2v-6zM48 211a2 2 0 113 0v4a2 2 0 11-3 0zm1 4l1 1v-5h-1zM49 221a1 1 0 001-1h1v7h-2v-5zM48 232a2 2 0 113 0v4a2 2 0 11-3 0zm1 4l1 1v-5h-1zM42 159a2 2 0 113 0v4a2 2 0 11-3 0zm1 4v1l1-1v-4l-1-1v1zM42 179a1 1 0 002-1v8h-1v-6h-1zM42 190a2 2 0 113 0v4a2 2 0 11-3 0zm1 4v1l1-1v-4h-1c-1 0 0 0 0 0zM42 211a2 2 0 113 0v4a2 2 0 11-3 0zm1 4v1l1-1v-4h-1c-1 0 0 0 0 0zM42 222a2 2 0 113 0v4a2 2 0 11-3 0zm1 4h1v-4l-1-1v1z" fill="#263238"/><path d="M42 232a2 2 0 113 0v4a2 2 0 11-3 0zm1 4v1l1-1v-4h-1c-1 0 0 0 0 0zM42 263a1 1 0 002-1v7h-1v-5h-1z" fill="#263238"/><g><path d="M393 257c-33-14-35-59-35-59h7v-6c17 0 28-10 28-10h0s12 10 28 10v6h7s-2 45-35 59z" fill="none" stroke="#263238" stroke-linecap="round" stroke-linejoin="round" stroke-width="1.1"/><path d="M393 251c-21-10-27-37-29-48h6v-6a52 52 0 0023-9 52 52 0 0023 9v6h6c-1 11-8 38-29 48z" fill="none" stroke="#263238" stroke-linecap="round" stroke-linejoin="round" stroke-width="1.1"/><rect x="380.2" y="213" width="25.8" height="16.6" rx="1.4" fill="#263238"/><path d="M394 199a9 9 0 00-10 9v1a1 1 0 001 1h2a1 1 0 000-1v-1a6 6 0 016-5 6 6 0 016 5v1a1 1 0 000 1h3a1 1 0 000-1 9 9 0 00-8-10z" fill="#263238"/><path d="M396 219a2 2 0 10-4 3l-1 3h4l-1-3a2 2 0 002-3z" fill="#fff" stroke="#263238" stroke-linecap="round" stroke-linejoin="round" stroke-width="1.1"/></g><g><rect x="207.6" y="48.1" width="85.6" height="51.1" rx="3.3" fill="none" stroke="#263238" stroke-linecap="round" stroke-linejoin="round" stroke-width="1.1"/><rect x="214.4" y="55.3" width="27.1" height="36.8" rx="1.1" transform="rotate(180 228 74)" fill="none" stroke="#263238" stroke-linecap="round" stroke-linejoin="round" stroke-width="1.1"/><path d="M228 92h-12a1 1 0 01-2-1v-9s7 0 8-1 0-4 0-4v-4l-1-1-1-4a2 2 0 011-1s-1-8 7-8 6 8 6 8a2 2 0 011 1l-1 4v5s-2 2-1 4 8 1 8 1v9a1 1 0 01-1 1zM285 92h-17a1 1 0 01-1-1 1 1 0 011-1h17a1 1 0 011 1 1 1 0 01-1 1zM285 58h-35a1 1 0 01-2-2 1 1 0 012-1h35a1 1 0 011 1 1 1 0 01-1 2zM270 66h-20a1 1 0 01-2-1 1 1 0 012-1h20a1 1 0 011 1 1 1 0 01-1 1zM263 75h-13a1 1 0 01-2-1 1 1 0 012-2h13a1 1 0 012 2 1 1 0 01-2 1zM270 84h-20a1 1 0 01-2-2 1 1 0 012-1h20a1 1 0 011 1 1 1 0 01-1 2z" fill="#263238"/></g><g stroke="#263238" stroke-linecap="round" stroke-linejoin="round" stroke-width="1.1"><path fill="none" d="M127 184v49l-13 14H79v-63h48z"/><path fill="#263238" d="M127 233l-13 14v-14h13z"/><path fill="none" d="M91 192h29M86 198h34M86 203h34M86 209h34M86 214h34M86 220h34M86 225h34M86 231h29M129 192h6v49l-13 14H87v-6"/><path fill="#263238" d="M135 241l-13 14v-14h13z"/></g><g stroke-linecap="round" stroke-linejoin="round" stroke-width="1.1"><rect x="187.6" y="150" width="125.6" height="138.8" rx="4.2" fill="#fde68a" stroke="#263238"/><g opacity=".5" fill="none" stroke="#fff"><path d="M311 196H190M311 212H190M311 227H190M311 243H190M311 258H190M311 273H190M311 181H190M311 165H190M282 286V152M266 286V152M250 286V152M235 286V152M219 286V152M203 286V152M298 286V152"/></g><path d="M246 262a149 149 0 016-21l1-4c1-3 4-11 3-13a1 1 0 00-1-1v1c-3 2-5 9-7 14v2a133 133 0 00-4 21" fill="none" stroke="#263238"/><path d="M251 262a144 144 0 015-19l1-4c3-6 5-13 3-17a6 6 0 00-5-3 5 5 0 00-3 1c-4 3-6 11-8 17l-1 2a134 134 0 00-4 21" fill="none" stroke="#263238"/><path d="M255 262a139 139 0 015-18c3-7 8-17 4-24-2-6-10-8-15-4-6 5-8 15-10 22a138 138 0 00-4 20" fill="none" stroke="#263238"/><path d="M260 260a128 128 0 014-14l2-4c3-7 6-16 3-24a15 15 0 00-14-8 14 14 0 00-9 3c-6 5-9 14-11 22v1a136 136 0 00-4 18" fill="none" stroke="#263238"/><path d="M266 258a124 124 0 014-14c3-8 7-19 3-28a20 20 0 00-18-11 18 18 0 00-12 4c-7 7-10 16-12 24l-1 2a138 138 0 00-3 15" fill="none" stroke="#263238"/><path d="M271 253c1-7 7-16 8-26 0-9-3-15-5-18a6 6 0 01-1-5 20 20 0 000-14M257 177c8 5 13 12 13 22 1 4-2 5-6 4-7-3-25-8-36 22a117 117 0 00-5 20" fill="none" stroke="#263238"/><path d="M242 177a29 29 0 0114 4c7 3 12 13 9 15-2 3-7-4-22 2-7 3-12 9-16 16a67 67 0 00-3 10 116 116 0 00-4 13" fill="none" stroke="#263238"/><path d="M234 183a32 32 0 018-1c13 0 18 7 16 8-1 2-4 1-7 1-11 2-20 8-25 17a65 65 0 00-7 14l-1 3" fill="none" stroke="#263238"/><path d="M227 190a23 23 0 0116-5l6 2c1 2-6 0-15 6-13 8-14 16-14 16M276 248s7-15 6-26c0-7-4-12-4-15v-7M196 179v-20h21M217 280h-21v-21M305 179v-20h-21M284 280h21v-21" fill="none" stroke="#263238"/></g><g><path d="M392 468l-16-23-10-16c-2-10-5-15-9-23s0-17 1-27-1-21-2-28v-14l-9-16a25 25 0 00-4-7 21 21 0 00-8-5 17 17 0 00-4-1h-8c-3 0-10-6-15-7a24 24 0 00-2 0h-13c-5 0-10-4-14-5a7 7 0 00-3-1l-13 2-1-14-1-4-1-13v-3-19-1-7c0-6-2-10-7-11s-8 2-10 10-4 7-5 19-3 20-2 26-1 17-1 17c-3-1-5 0-5 1l-3 17c-2 6-7 11-9 15a9 9 0 000 2c-2 4-1 13-1 24s-3 23 0 30a15 15 0 002 5c5 5 13 10 20 18 9 11 15 19 21 22 5 3 7 5 7 8a15 15 0 011 3c0 3 1 5 3 8a97 97 0 019 14c3 5 7 14 10 24z" fill="#fff"/><path d="M260 263v3c-7-1-21 2-21 6 0 6-1 18 2 21s8 4 8 4a12 12 0 00-1 1 9 9 0 00-5 2c-6 6-6 18-4 24 7 25-5 45-9 43s-5-24-3-29a33 33 0 001-9c-2-1-6 0-10 1 2-4 7-9 8-15l4-17c1-1 2-2 5-1v-17c-1-6 3-14 3-26s2-11 4-19 6-11 11-10 7 5 7 11a20 20 0 00-2-2 9 9 0 00-6-2c-3 1-5 3-7 6-2 4-2 8 1 7 3-2 10-1 14-1v19zM268 442a15 15 0 00-1-3c0-3-2-5-7-8-6-3-12-11-21-22-7-9-15-13-20-18 6 2 13 1 16 6 3 6 19 17 19 17 15 15 14 28 14 28zM279 296c-2-1-7 12-8 16-1 11 5 46-2 45-4 0-7-16-7-24v-32s-2-13-1-22l1 4 1 14 13-2a7 7 0 013 1zM305 301c-4 0-8 4-11 5-4 1-11-8-15-10 4 1 9 5 14 5h12zM331 308a31 31 0 00-5 8c-3 10 0 50-5 43-7-8 0-37-5-48-1-4-7-9-8-10 5 1 12 7 15 7h8zM376 445l-14-14c-9-5-12-11-12-20s1-8 4-17-2-20-2-18-4 19-7 20-4-10-4-19 4-51 3-59a12 12 0 00-1-4 25 25 0 014 7l9 16v14c1 6 3 17 2 28s-4 18-1 27 7 13 9 23l10 16zM297 323c2 2 3 30 4 36s-2 23-4 18-8-63 0-54z" fill="#fde68a" opacity=".4"/><path d="M289 485l-8-21a97 97 0 00-9-14c-3-3-4-5-4-8a15 15 0 00-1-3v0c0-3-2-5-7-8-6-3-12-11-21-22-7-9-15-13-20-18a15 15 0 01-2-5c-3-7 0-19 0-30s-1-20 1-24a9 9 0 010-2h0c2-4 7-9 9-15l3-17c0-1 2-2 5-1l1-17 2-26c0-12 2-11 5-19s5-11 10-10 7 5 7 11h0v30l1 13v0l1 4 1 14 13-2a7 7 0 013 1h0c4 1 9 5 14 5h13a24 24 0 012 0c5 1 12 7 15 7h8a17 17 0 014 1 21 21 0 018 5 25 25 0 014 7l9 16v14c1 6 3 17 2 28s-4 18-1 27 7 13 9 23l10 16h0l14 20" fill="none" stroke="#263238" stroke-linecap="round" stroke-linejoin="round" stroke-width="1.1"/><path d="M235 297l-2 23c-1 4-1 19-3 25M239 304s6-7 10-7l13 4c5 1 9-3 13-4M242 274s8-3 12 0M248 270s2-1 6 1M246 250a18 18 0 018 0M218 330l7-3M231 338l-3 7M246 230s-1 9 0 10 10 2 11 0l1-9s-6-9-12-1z" fill="none" stroke="#263238" stroke-linecap="round" stroke-linejoin="round" stroke-width="1.1"/><path d="M227 315s7-4 7-10-2-5-5-5M346 327c1 9-2 35-2 39v13M291 307c9 12 0 8 6 65M366 429s-7-6-9-9M264 426c2 4 3 12 3 13v0" fill="none" stroke="#263238" stroke-linecap="round" stroke-linejoin="round" stroke-width="1.1"/></g></svg>